<svg xmlns="http://www.w3.org/2000/svg" xmlns:xlink="http://www.w3.org/1999/xlink" width="1726" height="642" font-size="8.000000pt" font-family="Arial" fill="#000000"><polygon points="940.500000,156.500000 940.500000,24.500000 988.500000,48.500000 988.500000,180.500000 " fill="#ffaa22" stroke="#000000" stroke-width="1"/><polygon points="1036.500000,156.500000 1036.500000,24.500000 988.500000,48.500000 988.500000,180.500000 " fill="#cc7700" stroke="#000000" stroke-width="1"/><polygon points="940.500000,24.500000 988.500000,0.500000 1036.500000,24.500000 988.500000,48.500000 " fill="#ffdd55" stroke="#000000" stroke-width="1"/><polygon points="940.500000,156.500000 940.500000,44.500000 988.500000,68.500000 988.500000,180.500000 " fill="#dd2222" stroke="#000000" stroke-width="1"/><polygon points="1036.500000,156.500000 1036.500000,44.500000 988.500000,68.500000 988.500000,180.500000 " fill="#aa0000" stroke="#000000" stroke-width="1"/><polygon points="1028.500000,176.500000 1028.500000,176.500000 1052.500000,188.500000 1052.500000,188.500000 " fill="#999999" stroke="#000000" stroke-width="1"/><polygon points="1076.500000,176.500000 1076.500000,176.500000 1052.500000,188.500000 1052.500000,188.500000 " fill="#666666" stroke="#000000" stroke-width="1"/><polygon points="1028.500000,176.500000 1052.500000,164.500000 1076.500000,176.500000 1052.500000,188.500000 " fill="#cccccc" stroke="#000000" stroke-width="1"/><polygon points="900.500000,176.500000 900.500000,176.500000 924.500000,188.500000 924.500000,188.500000 " fill="#999999" stroke="#000000" stroke-width="1"/><polygon points="948.500000,176.500000 948.500000,176.500000 924.500000,188.500000 924.500000,188.500000 " fill="#666666" stroke="#000000" stroke-width="1"/><polygon points="900.500000,176.500000 924.500000,164.500000 948.500000,176.500000 924.500000,188.500000 " fill="#cccccc" stroke="#000000" stroke-width="1"/><polygon points="932.500000,192.500000 932.500000,192.500000 956.500000,204.500000 956.500000,204.500000 " fill="#999999" stroke="#000000" stroke-width="1"/><polygon points="980.500000,192.500000 980.500000,192.500000 956.500000,204.500000 956.500000,204.500000 " fill="#666666" stroke="#000000" stroke-width="1"/><polygon points="932.500000,192.500000 956.500000,180.500000 980.500000,192.500000 956.500000,204.500000 " fill="#cccccc" stroke="#000000" stroke-width="1"/><polygon points="996.500000,192.500000 996.500000,188.500000 1020.500000,200.500000 1020.500000,204.500000 " fill="#ffaa22" stroke="#000000" stroke-width="1"/><polygon points="1044.500000,192.500000 1044.500000,188.500000 1020.500000,200.500000 1020.500000,204.500000 " fill="#cc7700" stroke="#000000" stroke-width="1"/><polygon points="996.500000,188.500000 1020.500000,176.500000 1044.500000,188.500000 1020.500000,200.500000 " fill="#ffdd55" stroke="#000000" stroke-width="1"/><polygon points="868.500000,192.500000 868.500000,172.500000 892.500000,184.500000 892.500000,204.500000 " fill="#ffaa22" stroke="#000000" stroke-width="1"/><polygon points="916.500000,192.500000 916.500000,172.500000 892.500000,184.500000 892.500000,204.500000 " fill="#cc7700" stroke="#000000" stroke-width="1"/><polygon points="868.500000,172.500000 892.500000,160.500000 916.500000,172.500000 892.500000,184.500000 " fill="#ffdd55" stroke="#000000" stroke-width="1"/><polygon points="868.500000,192.500000 868.500000,180.500000 892.500000,192.500000 892.500000,204.500000 " fill="#dd2222" stroke="#000000" stroke-width="1"/><polygon points="916.500000,192.500000 916.500000,180.500000 892.500000,192.500000 892.500000,204.500000 " fill="#aa0000" stroke="#000000" stroke-width="1"/><polygon points="1060.500000,192.500000 1060.500000,192.500000 1084.500000,204.500000 1084.500000,204.500000 " fill="#999999" stroke="#000000" stroke-width="1"/><polygon points="1108.500000,192.500000 1108.500000,192.500000 1084.500000,204.500000 1084.500000,204.500000 " fill="#666666" stroke="#000000" stroke-width="1"/><polygon points="1060.500000,192.500000 1084.500000,180.500000 1108.500000,192.500000 1084.500000,204.500000 " fill="#cccccc" stroke="#000000" stroke-width="1"/><polygon points="964.500000,208.500000 964.500000,208.500000 988.500000,220.500000 988.500000,220.500000 " fill="#999999" stroke="#000000" stroke-width="1"/><polygon points="1012.500000,208.500000 1012.500000,208.500000 988.500000,220.500000 988.500000,220.500000 " fill="#666666" stroke="#000000" stroke-width="1"/><polygon points="964.500000,208.500000 988.500000,196.500000 1012.500000,208.500000 988.500000,220.500000 " fill="#cccccc" stroke="#000000" stroke-width="1"/><polygon points="900.500000,208.500000 900.500000,204.500000 924.500000,216.500000 924.500000,220.500000 " fill="#dd2222" stroke="#000000" stroke-width="1"/><polygon points="948.500000,208.500000 948.500000,204.500000 924.500000,216.500000 924.500000,220.500000 " fill="#aa0000" stroke="#000000" stroke-width="1"/><polygon points="900.500000,204.500000 924.500000,192.500000 948.500000,204.500000 924.500000,216.500000 " fill="#ff5555" stroke="#000000" stroke-width="1"/><polygon points="1028.500000,208.500000 1028.500000,208.500000 1052.500000,220.500000 1052.500000,220.500000 " fill="#999999" stroke="#000000" stroke-width="1"/><polygon points="1076.500000,208.500000 1076.500000,208.500000 1052.500000,220.500000 1052.500000,220.500000 " fill="#666666" stroke="#000000" stroke-width="1"/><polygon points="1028.500000,208.500000 1052.500000,196.500000 1076.500000,208.500000 1052.500000,220.500000 " fill="#cccccc" stroke="#000000" stroke-width="1"/><polygon points="836.500000,208.500000 836.500000,208.500000 860.500000,220.500000 860.500000,220.500000 " fill="#999999" stroke="#000000" stroke-width="1"/><polygon points="884.500000,208.500000 884.500000,208.500000 860.500000,220.500000 860.500000,220.500000 " fill="#666666" stroke="#000000" stroke-width="1"/><polygon points="836.500000,208.500000 860.500000,196.500000 884.500000,208.500000 860.500000,220.500000 " fill="#cccccc" stroke="#000000" stroke-width="1"/><polygon points="1092.500000,208.500000 1092.500000,208.500000 1116.500000,220.500000 1116.500000,220.500000 " fill="#999999" stroke="#000000" stroke-width="1"/><polygon points="1140.500000,208.500000 1140.500000,208.500000 1116.500000,220.500000 1116.500000,220.500000 " fill="#666666" stroke="#000000" stroke-width="1"/><polygon points="1092.500000,208.500000 1116.500000,196.500000 1140.500000,208.500000 1116.500000,220.500000 " fill="#cccccc" stroke="#000000" stroke-width="1"/><polygon points="932.500000,224.500000 932.500000,224.500000 956.500000,236.500000 956.500000,236.500000 " fill="#999999" stroke="#000000" stroke-width="1"/><polygon points="980.500000,224.500000 980.500000,224.500000 956.500000,236.500000 956.500000,236.500000 " fill="#666666" stroke="#000000" stroke-width="1"/><polygon points="932.500000,224.500000 956.500000,212.500000 980.500000,224.500000 956.500000,236.500000 " fill="#cccccc" stroke="#000000" stroke-width="1"/><polygon points="996.500000,224.500000 996.500000,224.500000 1020.500000,236.500000 1020.500000,236.500000 " fill="#999999" stroke="#000000" stroke-width="1"/><polygon points="1044.500000,224.500000 1044.500000,224.500000 1020.500000,236.500000 1020.500000,236.500000 " fill="#666666" stroke="#000000" stroke-width="1"/><polygon points="996.500000,224.500000 1020.500000,212.500000 1044.500000,224.500000 1020.500000,236.500000 " fill="#cccccc" stroke="#000000" stroke-width="1"/><polygon points="868.500000,224.500000 868.500000,224.500000 892.500000,236.500000 892.500000,236.500000 " fill="#999999" stroke="#000000" stroke-width="1"/><polygon points="916.500000,224.500000 916.500000,224.500000 892.500000,236.500000 892.500000,236.500000 " fill="#666666" stroke="#000000" stroke-width="1"/><polygon points="868.500000,224.500000 892.500000,212.500000 916.500000,224.500000 892.500000,236.500000 " fill="#cccccc" stroke="#000000" stroke-width="1"/><polygon points="1060.500000,224.500000 1060.500000,224.500000 1084.500000,236.500000 1084.500000,236.500000 " fill="#999999" stroke="#000000" stroke-width="1"/><polygon points="1108.500000,224.500000 1108.500000,224.500000 1084.500000,236.500000 1084.500000,236.500000 " fill="#666666" stroke="#000000" stroke-width="1"/><polygon points="1060.500000,224.500000 1084.500000,212.500000 1108.500000,224.500000 1084.500000,236.500000 " fill="#cccccc" stroke="#000000" stroke-width="1"/><polygon points="804.500000,224.500000 804.500000,224.500000 828.500000,236.500000 828.500000,236.500000 " fill="#999999" stroke="#000000" stroke-width="1"/><polygon points="852.500000,224.500000 852.500000,224.500000 828.500000,236.500000 828.500000,236.500000 " fill="#666666" stroke="#000000" stroke-width="1"/><polygon points="804.500000,224.500000 828.500000,212.500000 852.500000,224.500000 828.500000,236.500000 " fill="#cccccc" stroke="#000000" stroke-width="1"/><polygon points="1124.500000,224.500000 1124.500000,224.500000 1148.500000,236.500000 1148.500000,236.500000 " fill="#999999" stroke="#000000" stroke-width="1"/><polygon points="1172.500000,224.500000 1172.500000,224.500000 1148.500000,236.500000 1148.500000,236.500000 " fill="#666666" stroke="#000000" stroke-width="1"/><polygon points="1124.500000,224.500000 1148.500000,212.500000 1172.500000,224.500000 1148.500000,236.500000 " fill="#cccccc" stroke="#000000" stroke-width="1"/><polygon points="964.500000,240.500000 964.500000,240.500000 988.500000,252.500000 988.500000,252.500000 " fill="#999999" stroke="#000000" stroke-width="1"/><polygon points="1012.500000,240.500000 1012.500000,240.500000 988.500000,252.500000 988.500000,252.500000 " fill="#666666" stroke="#000000" stroke-width="1"/><polygon points="964.500000,240.500000 988.500000,228.500000 1012.500000,240.500000 988.500000,252.500000 " fill="#cccccc" stroke="#000000" stroke-width="1"/><polygon points="900.500000,240.500000 900.500000,240.500000 924.500000,252.500000 924.500000,252.500000 " fill="#999999" stroke="#000000" stroke-width="1"/><polygon points="948.500000,240.500000 948.500000,240.500000 924.500000,252.500000 924.500000,252.500000 " fill="#666666" stroke="#000000" stroke-width="1"/><polygon points="900.500000,240.500000 924.500000,228.500000 948.500000,240.500000 924.500000,252.500000 " fill="#cccccc" stroke="#000000" stroke-width="1"/><polygon points="1028.500000,240.500000 1028.500000,240.500000 1052.500000,252.500000 1052.500000,252.500000 " fill="#999999" stroke="#000000" stroke-width="1"/><polygon points="1076.500000,240.500000 1076.500000,240.500000 1052.500000,252.500000 1052.500000,252.500000 " fill="#666666" stroke="#000000" stroke-width="1"/><polygon points="1028.500000,240.500000 1052.500000,228.500000 1076.500000,240.500000 1052.500000,252.500000 " fill="#cccccc" stroke="#000000" stroke-width="1"/><polygon points="836.500000,240.500000 836.500000,240.500000 860.500000,252.500000 860.500000,252.500000 " fill="#999999" stroke="#000000" stroke-width="1"/><polygon points="884.500000,240.500000 884.500000,240.500000 860.500000,252.500000 860.500000,252.500000 " fill="#666666" stroke="#000000" stroke-width="1"/><polygon points="836.500000,240.500000 860.500000,228.500000 884.500000,240.500000 860.500000,252.500000 " fill="#cccccc" stroke="#000000" stroke-width="1"/><polygon points="1092.500000,240.500000 1092.500000,240.500000 1116.500000,252.500000 1116.500000,252.500000 " fill="#999999" stroke="#000000" stroke-width="1"/><polygon points="1140.500000,240.500000 1140.500000,240.500000 1116.500000,252.500000 1116.500000,252.500000 " fill="#666666" stroke="#000000" stroke-width="1"/><polygon points="1092.500000,240.500000 1116.500000,228.500000 1140.500000,240.500000 1116.500000,252.500000 " fill="#cccccc" stroke="#000000" stroke-width="1"/><polygon points="772.500000,240.500000 772.500000,240.500000 796.500000,252.500000 796.500000,252.500000 " fill="#999999" stroke="#000000" stroke-width="1"/><polygon points="820.500000,240.500000 820.500000,240.500000 796.500000,252.500000 796.500000,252.500000 " fill="#666666" stroke="#000000" stroke-width="1"/><polygon points="772.500000,240.500000 796.500000,228.500000 820.500000,240.500000 796.500000,252.500000 " fill="#cccccc" stroke="#000000" stroke-width="1"/><polygon points="1156.500000,240.500000 1156.500000,144.500000 1180.500000,156.500000 1180.500000,252.500000 " fill="#ffaa22" stroke="#000000" stroke-width="1"/><polygon points="1204.500000,240.500000 1204.500000,144.500000 1180.500000,156.500000 1180.500000,252.500000 " fill="#cc7700" stroke="#000000" stroke-width="1"/><polygon points="1156.500000,144.500000 1180.500000,132.500000 1204.500000,144.500000 1180.500000,156.500000 " fill="#ffdd55" stroke="#000000" stroke-width="1"/><polygon points="1156.500000,240.500000 1156.500000,160.500000 1180.500000,172.500000 1180.500000,252.500000 " fill="#dd2222" stroke="#000000" stroke-width="1"/><polygon points="1204.500000,240.500000 1204.500000,160.500000 1180.500000,172.500000 1180.500000,252.500000 " fill="#aa0000" stroke="#000000" stroke-width="1"/><polygon points="932.500000,256.500000 932.500000,256.500000 956.500000,268.500000 956.500000,268.500000 " fill="#999999" stroke="#000000" stroke-width="1"/><polygon points="980.500000,256.500000 980.500000,256.500000 956.500000,268.500000 956.500000,268.500000 " fill="#666666" stroke="#000000" stroke-width="1"/><polygon points="932.500000,256.500000 956.500000,244.500000 980.500000,256.500000 956.500000,268.500000 " fill="#cccccc" stroke="#000000" stroke-width="1"/><polygon points="996.500000,256.500000 996.500000,256.500000 1020.500000,268.500000 1020.500000,268.500000 " fill="#999999" stroke="#000000" stroke-width="1"/><polygon points="1044.500000,256.500000 1044.500000,256.500000 1020.500000,268.500000 1020.500000,268.500000 " fill="#666666" stroke="#000000" stroke-width="1"/><polygon points="996.500000,256.500000 1020.500000,244.500000 1044.500000,256.500000 1020.500000,268.500000 " fill="#cccccc" stroke="#000000" stroke-width="1"/><polygon points="868.500000,256.500000 868.500000,256.500000 892.500000,268.500000 892.500000,268.500000 " fill="#999999" stroke="#000000" stroke-width="1"/><polygon points="916.500000,256.500000 916.500000,256.500000 892.500000,268.500000 892.500000,268.500000 " fill="#666666" stroke="#000000" stroke-width="1"/><polygon points="868.500000,256.500000 892.500000,244.500000 916.500000,256.500000 892.500000,268.500000 " fill="#cccccc" stroke="#000000" stroke-width="1"/><polygon points="1060.500000,256.500000 1060.500000,256.500000 1084.500000,268.500000 1084.500000,268.500000 " fill="#999999" stroke="#000000" stroke-width="1"/><polygon points="1108.500000,256.500000 1108.500000,256.500000 1084.500000,268.500000 1084.500000,268.500000 " fill="#666666" stroke="#000000" stroke-width="1"/><polygon points="1060.500000,256.500000 1084.500000,244.500000 1108.500000,256.500000 1084.500000,268.500000 " fill="#cccccc" stroke="#000000" stroke-width="1"/><polygon points="804.500000,256.500000 804.500000,256.500000 828.500000,268.500000 828.500000,268.500000 " fill="#999999" stroke="#000000" stroke-width="1"/><polygon points="852.500000,256.500000 852.500000,256.500000 828.500000,268.500000 828.500000,268.500000 " fill="#666666" stroke="#000000" stroke-width="1"/><polygon points="804.500000,256.500000 828.500000,244.500000 852.500000,256.500000 828.500000,268.500000 " fill="#cccccc" stroke="#000000" stroke-width="1"/><polygon points="740.500000,256.500000 740.500000,160.500000 764.500000,172.500000 764.500000,268.500000 " fill="#ffaa22" stroke="#000000" stroke-width="1"/><polygon points="788.500000,256.500000 788.500000,160.500000 764.500000,172.500000 764.500000,268.500000 " fill="#cc7700" stroke="#000000" stroke-width="1"/><polygon points="740.500000,160.500000 764.500000,148.500000 788.500000,160.500000 764.500000,172.500000 " fill="#ffdd55" stroke="#000000" stroke-width="1"/><polygon points="740.500000,256.500000 740.500000,176.500000 764.500000,188.500000 764.500000,268.500000 " fill="#dd2222" stroke="#000000" stroke-width="1"/><polygon points="788.500000,256.500000 788.500000,176.500000 764.500000,188.500000 764.500000,268.500000 " fill="#aa0000" stroke="#000000" stroke-width="1"/><polygon points="1136.500000,250.500000 1136.500000,250.500000 1148.500000,256.500000 1148.500000,256.500000 " fill="#999999" stroke="#000000" stroke-width="1"/><polygon points="1160.500000,250.500000 1160.500000,250.500000 1148.500000,256.500000 1148.500000,256.500000 " fill="#666666" stroke="#000000" stroke-width="1"/><polygon points="1136.500000,250.500000 1148.500000,244.500000 1160.500000,250.500000 1148.500000,256.500000 " fill="#cccccc" stroke="#000000" stroke-width="1"/><polygon points="1188.500000,256.500000 1188.500000,160.500000 1212.500000,172.500000 1212.500000,268.500000 " fill="#ffaa22" stroke="#000000" stroke-width="1"/><polygon points="1236.500000,256.500000 1236.500000,160.500000 1212.500000,172.500000 1212.500000,268.500000 " fill="#cc7700" stroke="#000000" stroke-width="1"/><polygon points="1188.500000,160.500000 1212.500000,148.500000 1236.500000,160.500000 1212.500000,172.500000 " fill="#ffdd55" stroke="#000000" stroke-width="1"/><polygon points="1188.500000,256.500000 1188.500000,176.500000 1212.500000,188.500000 1212.500000,268.500000 " fill="#dd2222" stroke="#000000" stroke-width="1"/><polygon points="1236.500000,256.500000 1236.500000,176.500000 1212.500000,188.500000 1212.500000,268.500000 " fill="#aa0000" stroke="#000000" stroke-width="1"/><polygon points="964.500000,272.500000 964.500000,272.500000 988.500000,284.500000 988.500000,284.500000 " fill="#999999" stroke="#000000" stroke-width="1"/><polygon points="1012.500000,272.500000 1012.500000,272.500000 988.500000,284.500000 988.500000,284.500000 " fill="#666666" stroke="#000000" stroke-width="1"/><polygon points="964.500000,272.500000 988.500000,260.500000 1012.500000,272.500000 988.500000,284.500000 " fill="#cccccc" stroke="#000000" stroke-width="1"/><polygon points="900.500000,272.500000 900.500000,272.500000 924.500000,284.500000 924.500000,284.500000 " fill="#999999" stroke="#000000" stroke-width="1"/><polygon points="948.500000,272.500000 948.500000,272.500000 924.500000,284.500000 924.500000,284.500000 " fill="#666666" stroke="#000000" stroke-width="1"/><polygon points="900.500000,272.500000 924.500000,260.500000 948.500000,272.500000 924.500000,284.500000 " fill="#cccccc" stroke="#000000" stroke-width="1"/><polygon points="1028.500000,272.500000 1028.500000,272.500000 1052.500000,284.500000 1052.500000,284.500000 " fill="#999999" stroke="#000000" stroke-width="1"/><polygon points="1076.500000,272.500000 1076.500000,272.500000 1052.500000,284.500000 1052.500000,284.500000 " fill="#666666" stroke="#000000" stroke-width="1"/><polygon points="1028.500000,272.500000 1052.500000,260.500000 1076.500000,272.500000 1052.500000,284.500000 " fill="#cccccc" stroke="#000000" stroke-width="1"/><polygon points="836.500000,272.500000 836.500000,176.500000 860.500000,188.500000 860.500000,284.500000 " fill="#ffaa22" stroke="#000000" stroke-width="1"/><polygon points="884.500000,272.500000 884.500000,176.500000 860.500000,188.500000 860.500000,284.500000 " fill="#cc7700" stroke="#000000" stroke-width="1"/><polygon points="836.500000,176.500000 860.500000,164.500000 884.500000,176.500000 860.500000,188.500000 " fill="#ffdd55" stroke="#000000" stroke-width="1"/><polygon points="836.500000,272.500000 836.500000,192.500000 860.500000,204.500000 860.500000,284.500000 " fill="#dd2222" stroke="#000000" stroke-width="1"/><polygon points="884.500000,272.500000 884.500000,192.500000 860.500000,204.500000 860.500000,284.500000 " fill="#aa0000" stroke="#000000" stroke-width="1"/><polygon points="784.500000,266.500000 784.500000,266.500000 796.500000,272.500000 796.500000,272.500000 " fill="#999999" stroke="#000000" stroke-width="1"/><polygon points="808.500000,266.500000 808.500000,266.500000 796.500000,272.500000 796.500000,272.500000 " fill="#666666" stroke="#000000" stroke-width="1"/><polygon points="784.500000,266.500000 796.500000,260.500000 808.500000,266.500000 796.500000,272.500000 " fill="#cccccc" stroke="#000000" stroke-width="1"/><polygon points="708.500000,272.500000 708.500000,176.500000 732.500000,188.500000 732.500000,284.500000 " fill="#ffaa22" stroke="#000000" stroke-width="1"/><polygon points="756.500000,272.500000 756.500000,176.500000 732.500000,188.500000 732.500000,284.500000 " fill="#cc7700" stroke="#000000" stroke-width="1"/><polygon points="708.500000,176.500000 732.500000,164.500000 756.500000,176.500000 732.500000,188.500000 " fill="#ffdd55" stroke="#000000" stroke-width="1"/><polygon points="708.500000,272.500000 708.500000,192.500000 732.500000,204.500000 732.500000,284.500000 " fill="#dd2222" stroke="#000000" stroke-width="1"/><polygon points="756.500000,272.500000 756.500000,192.500000 732.500000,204.500000 732.500000,284.500000 " fill="#aa0000" stroke="#000000" stroke-width="1"/><polygon points="1168.500000,266.500000 1168.500000,266.500000 1180.500000,272.500000 1180.500000,272.500000 " fill="#999999" stroke="#000000" stroke-width="1"/><polygon points="1192.500000,266.500000 1192.500000,266.500000 1180.500000,272.500000 1180.500000,272.500000 " fill="#666666" stroke="#000000" stroke-width="1"/><polygon points="1168.500000,266.500000 1180.500000,260.500000 1192.500000,266.500000 1180.500000,272.500000 " fill="#cccccc" stroke="#000000" stroke-width="1"/><polygon points="1220.500000,272.500000 1220.500000,176.500000 1244.500000,188.500000 1244.500000,284.500000 " fill="#ffaa22" stroke="#000000" stroke-width="1"/><polygon points="1268.500000,272.500000 1268.500000,176.500000 1244.500000,188.500000 1244.500000,284.500000 " fill="#cc7700" stroke="#000000" stroke-width="1"/><polygon points="1220.500000,176.500000 1244.500000,164.500000 1268.500000,176.500000 1244.500000,188.500000 " fill="#ffdd55" stroke="#000000" stroke-width="1"/><polygon points="1220.500000,272.500000 1220.500000,192.500000 1244.500000,204.500000 1244.500000,284.500000 " fill="#dd2222" stroke="#000000" stroke-width="1"/><polygon points="1268.500000,272.500000 1268.500000,192.500000 1244.500000,204.500000 1244.500000,284.500000 " fill="#aa0000" stroke="#000000" stroke-width="1"/><polygon points="932.500000,288.500000 932.500000,288.500000 956.500000,300.500000 956.500000,300.500000 " fill="#999999" stroke="#000000" stroke-width="1"/><polygon points="980.500000,288.500000 980.500000,288.500000 956.500000,300.500000 956.500000,300.500000 " fill="#666666" stroke="#000000" stroke-width="1"/><polygon points="932.500000,288.500000 956.500000,276.500000 980.500000,288.500000 956.500000,300.500000 " fill="#cccccc" stroke="#000000" stroke-width="1"/><polygon points="996.500000,288.500000 996.500000,288.500000 1020.500000,300.500000 1020.500000,300.500000 " fill="#999999" stroke="#000000" stroke-width="1"/><polygon points="1044.500000,288.500000 1044.500000,288.500000 1020.500000,300.500000 1020.500000,300.500000 " fill="#666666" stroke="#000000" stroke-width="1"/><polygon points="996.500000,288.500000 1020.500000,276.500000 1044.500000,288.500000 1020.500000,300.500000 " fill="#cccccc" stroke="#000000" stroke-width="1"/><polygon points="880.500000,282.500000 880.500000,282.500000 892.500000,288.500000 892.500000,288.500000 " fill="#999999" stroke="#000000" stroke-width="1"/><polygon points="904.500000,282.500000 904.500000,282.500000 892.500000,288.500000 892.500000,288.500000 " fill="#666666" stroke="#000000" stroke-width="1"/><polygon points="880.500000,282.500000 892.500000,276.500000 904.500000,282.500000 892.500000,288.500000 " fill="#cccccc" stroke="#000000" stroke-width="1"/><polygon points="752.500000,282.500000 752.500000,282.500000 764.500000,288.500000 764.500000,288.500000 " fill="#999999" stroke="#000000" stroke-width="1"/><polygon points="776.500000,282.500000 776.500000,282.500000 764.500000,288.500000 764.500000,288.500000 " fill="#666666" stroke="#000000" stroke-width="1"/><polygon points="752.500000,282.500000 764.500000,276.500000 776.500000,282.500000 764.500000,288.500000 " fill="#cccccc" stroke="#000000" stroke-width="1"/><polygon points="676.500000,288.500000 676.500000,192.500000 700.500000,204.500000 700.500000,300.500000 " fill="#ffaa22" stroke="#000000" stroke-width="1"/><polygon points="724.500000,288.500000 724.500000,192.500000 700.500000,204.500000 700.500000,300.500000 " fill="#cc7700" stroke="#000000" stroke-width="1"/><polygon points="676.500000,192.500000 700.500000,180.500000 724.500000,192.500000 700.500000,204.500000 " fill="#ffdd55" stroke="#000000" stroke-width="1"/><polygon points="676.500000,288.500000 676.500000,208.500000 700.500000,220.500000 700.500000,300.500000 " fill="#dd2222" stroke="#000000" stroke-width="1"/><polygon points="724.500000,288.500000 724.500000,208.500000 700.500000,220.500000 700.500000,300.500000 " fill="#aa0000" stroke="#000000" stroke-width="1"/><polygon points="1200.500000,282.500000 1200.500000,282.500000 1212.500000,288.500000 1212.500000,288.500000 " fill="#999999" stroke="#000000" stroke-width="1"/><polygon points="1224.500000,282.500000 1224.500000,282.500000 1212.500000,288.500000 1212.500000,288.500000 " fill="#666666" stroke="#000000" stroke-width="1"/><polygon points="1200.500000,282.500000 1212.500000,276.500000 1224.500000,282.500000 1212.500000,288.500000 " fill="#cccccc" stroke="#000000" stroke-width="1"/><polygon points="1252.500000,288.500000 1252.500000,192.500000 1276.500000,204.500000 1276.500000,300.500000 " fill="#ffaa22" stroke="#000000" stroke-width="1"/><polygon points="1300.500000,288.500000 1300.500000,192.500000 1276.500000,204.500000 1276.500000,300.500000 " fill="#cc7700" stroke="#000000" stroke-width="1"/><polygon points="1252.500000,192.500000 1276.500000,180.500000 1300.500000,192.500000 1276.500000,204.500000 " fill="#ffdd55" stroke="#000000" stroke-width="1"/><polygon points="1252.500000,288.500000 1252.500000,208.500000 1276.500000,220.500000 1276.500000,300.500000 " fill="#dd2222" stroke="#000000" stroke-width="1"/><polygon points="1300.500000,288.500000 1300.500000,208.500000 1276.500000,220.500000 1276.500000,300.500000 " fill="#aa0000" stroke="#000000" stroke-width="1"/><polygon points="964.500000,304.500000 964.500000,208.500000 988.500000,220.500000 988.500000,316.500000 " fill="#ffaa22" stroke="#000000" stroke-width="1"/><polygon points="1012.500000,304.500000 1012.500000,208.500000 988.500000,220.500000 988.500000,316.500000 " fill="#cc7700" stroke="#000000" stroke-width="1"/><polygon points="964.500000,208.500000 988.500000,196.500000 1012.500000,208.500000 988.500000,220.500000 " fill="#ffdd55" stroke="#000000" stroke-width="1"/><polygon points="964.500000,304.500000 964.500000,224.500000 988.500000,236.500000 988.500000,316.500000 " fill="#dd2222" stroke="#000000" stroke-width="1"/><polygon points="1012.500000,304.500000 1012.500000,224.500000 988.500000,236.500000 988.500000,316.500000 " fill="#aa0000" stroke="#000000" stroke-width="1"/><polygon points="720.500000,298.500000 720.500000,298.500000 732.500000,304.500000 732.500000,304.500000 " fill="#999999" stroke="#000000" stroke-width="1"/><polygon points="744.500000,298.500000 744.500000,298.500000 732.500000,304.500000 732.500000,304.500000 " fill="#666666" stroke="#000000" stroke-width="1"/><polygon points="720.500000,298.500000 732.500000,292.500000 744.500000,298.500000 732.500000,304.500000 " fill="#cccccc" stroke="#000000" stroke-width="1"/><polygon points="644.500000,304.500000 644.500000,208.500000 668.500000,220.500000 668.500000,316.500000 " fill="#ffaa22" stroke="#000000" stroke-width="1"/><polygon points="692.500000,304.500000 692.500000,208.500000 668.500000,220.500000 668.500000,316.500000 " fill="#cc7700" stroke="#000000" stroke-width="1"/><polygon points="644.500000,208.500000 668.500000,196.500000 692.500000,208.500000 668.500000,220.500000 " fill="#ffdd55" stroke="#000000" stroke-width="1"/><polygon points="644.500000,304.500000 644.500000,224.500000 668.500000,236.500000 668.500000,316.500000 " fill="#dd2222" stroke="#000000" stroke-width="1"/><polygon points="692.500000,304.500000 692.500000,224.500000 668.500000,236.500000 668.500000,316.500000 " fill="#aa0000" stroke="#000000" stroke-width="1"/><polygon points="1232.500000,298.500000 1232.500000,298.500000 1244.500000,304.500000 1244.500000,304.500000 " fill="#999999" stroke="#000000" stroke-width="1"/><polygon points="1256.500000,298.500000 1256.500000,298.500000 1244.500000,304.500000 1244.500000,304.500000 " fill="#666666" stroke="#000000" stroke-width="1"/><polygon points="1232.500000,298.500000 1244.500000,292.500000 1256.500000,298.500000 1244.500000,304.500000 " fill="#cccccc" stroke="#000000" stroke-width="1"/><polygon points="1284.500000,304.500000 1284.500000,208.500000 1308.500000,220.500000 1308.500000,316.500000 " fill="#ffaa22" stroke="#000000" stroke-width="1"/><polygon points="1332.500000,304.500000 1332.500000,208.500000 1308.500000,220.500000 1308.500000,316.500000 " fill="#cc7700" stroke="#000000" stroke-width="1"/><polygon points="1284.500000,208.500000 1308.500000,196.500000 1332.500000,208.500000 1308.500000,220.500000 " fill="#ffdd55" stroke="#000000" stroke-width="1"/><polygon points="1284.500000,304.500000 1284.500000,224.500000 1308.500000,236.500000 1308.500000,316.500000 " fill="#dd2222" stroke="#000000" stroke-width="1"/><polygon points="1332.500000,304.500000 1332.500000,224.500000 1308.500000,236.500000 1308.500000,316.500000 " fill="#aa0000" stroke="#000000" stroke-width="1"/><polygon points="944.500000,314.500000 944.500000,314.500000 956.500000,320.500000 956.500000,320.500000 " fill="#999999" stroke="#000000" stroke-width="1"/><polygon points="968.500000,314.500000 968.500000,314.500000 956.500000,320.500000 956.500000,320.500000 " fill="#666666" stroke="#000000" stroke-width="1"/><polygon points="944.500000,314.500000 956.500000,308.500000 968.500000,314.500000 956.500000,320.500000 " fill="#cccccc" stroke="#000000" stroke-width="1"/><polygon points="688.500000,314.500000 688.500000,314.500000 700.500000,320.500000 700.500000,320.500000 " fill="#999999" stroke="#000000" stroke-width="1"/><polygon points="712.500000,314.500000 712.500000,314.500000 700.500000,320.500000 700.500000,320.500000 " fill="#666666" stroke="#000000" stroke-width="1"/><polygon points="688.500000,314.500000 700.500000,308.500000 712.500000,314.500000 700.500000,320.500000 " fill="#cccccc" stroke="#000000" stroke-width="1"/><polygon points="612.500000,320.500000 612.500000,224.500000 636.500000,236.500000 636.500000,332.500000 " fill="#ffaa22" stroke="#000000" stroke-width="1"/><polygon points="660.500000,320.500000 660.500000,224.500000 636.500000,236.500000 636.500000,332.500000 " fill="#cc7700" stroke="#000000" stroke-width="1"/><polygon points="612.500000,224.500000 636.500000,212.500000 660.500000,224.500000 636.500000,236.500000 " fill="#ffdd55" stroke="#000000" stroke-width="1"/><polygon points="612.500000,320.500000 612.500000,240.500000 636.500000,252.500000 636.500000,332.500000 " fill="#dd2222" stroke="#000000" stroke-width="1"/><polygon points="660.500000,320.500000 660.500000,240.500000 636.500000,252.500000 636.500000,332.500000 " fill="#aa0000" stroke="#000000" stroke-width="1"/><polygon points="1264.500000,314.500000 1264.500000,314.500000 1276.500000,320.500000 1276.500000,320.500000 " fill="#999999" stroke="#000000" stroke-width="1"/><polygon points="1288.500000,314.500000 1288.500000,314.500000 1276.500000,320.500000 1276.500000,320.500000 " fill="#666666" stroke="#000000" stroke-width="1"/><polygon points="1264.500000,314.500000 1276.500000,308.500000 1288.500000,314.500000 1276.500000,320.500000 " fill="#cccccc" stroke="#000000" stroke-width="1"/><polygon points="1316.500000,320.500000 1316.500000,304.500000 1340.500000,316.500000 1340.500000,332.500000 " fill="#dd2222" stroke="#000000" stroke-width="1"/><polygon points="1364.500000,320.500000 1364.500000,304.500000 1340.500000,316.500000 1340.500000,332.500000 " fill="#aa0000" stroke="#000000" stroke-width="1"/><polygon points="1316.500000,304.500000 1340.500000,292.500000 1364.500000,304.500000 1340.500000,316.500000 " fill="#ff5555" stroke="#000000" stroke-width="1"/><polygon points="656.500000,330.500000 656.500000,330.500000 668.500000,336.500000 668.500000,336.500000 " fill="#999999" stroke="#000000" stroke-width="1"/><polygon points="680.500000,330.500000 680.500000,330.500000 668.500000,336.500000 668.500000,336.500000 " fill="#666666" stroke="#000000" stroke-width="1"/><polygon points="656.500000,330.500000 668.500000,324.500000 680.500000,330.500000 668.500000,336.500000 " fill="#cccccc" stroke="#000000" stroke-width="1"/><polygon points="580.500000,336.500000 580.500000,240.500000 604.500000,252.500000 604.500000,348.500000 " fill="#ffaa22" stroke="#000000" stroke-width="1"/><polygon points="628.500000,336.500000 628.500000,240.500000 604.500000,252.500000 604.500000,348.500000 " fill="#cc7700" stroke="#000000" stroke-width="1"/><polygon points="580.500000,240.500000 604.500000,228.500000 628.500000,240.500000 604.500000,252.500000 " fill="#ffdd55" stroke="#000000" stroke-width="1"/><polygon points="580.500000,336.500000 580.500000,256.500000 604.500000,268.500000 604.500000,348.500000 " fill="#dd2222" stroke="#000000" stroke-width="1"/><polygon points="628.500000,336.500000 628.500000,256.500000 604.500000,268.500000 604.500000,348.500000 " fill="#aa0000" stroke="#000000" stroke-width="1"/><polygon points="1296.500000,330.500000 1296.500000,330.500000 1308.500000,336.500000 1308.500000,336.500000 " fill="#999999" stroke="#000000" stroke-width="1"/><polygon points="1320.500000,330.500000 1320.500000,330.500000 1308.500000,336.500000 1308.500000,336.500000 " fill="#666666" stroke="#000000" stroke-width="1"/><polygon points="1296.500000,330.500000 1308.500000,324.500000 1320.500000,330.500000 1308.500000,336.500000 " fill="#cccccc" stroke="#000000" stroke-width="1"/><polygon points="1348.500000,336.500000 1348.500000,332.500000 1372.500000,344.500000 1372.500000,348.500000 " fill="#dd2222" stroke="#000000" stroke-width="1"/><polygon points="1396.500000,336.500000 1396.500000,332.500000 1372.500000,344.500000 1372.500000,348.500000 " fill="#aa0000" stroke="#000000" stroke-width="1"/><polygon points="1348.500000,332.500000 1372.500000,320.500000 1396.500000,332.500000 1372.500000,344.500000 " fill="#ff5555" stroke="#000000" stroke-width="1"/><polygon points="624.500000,346.500000 624.500000,346.500000 636.500000,352.500000 636.500000,352.500000 " fill="#999999" stroke="#000000" stroke-width="1"/><polygon points="648.500000,346.500000 648.500000,346.500000 636.500000,352.500000 636.500000,352.500000 " fill="#666666" stroke="#000000" stroke-width="1"/><polygon points="624.500000,346.500000 636.500000,340.500000 648.500000,346.500000 636.500000,352.500000 " fill="#cccccc" stroke="#000000" stroke-width="1"/><polygon points="548.500000,352.500000 548.500000,244.500000 572.500000,256.500000 572.500000,364.500000 " fill="#ffaa22" stroke="#000000" stroke-width="1"/><polygon points="596.500000,352.500000 596.500000,244.500000 572.500000,256.500000 572.500000,364.500000 " fill="#cc7700" stroke="#000000" stroke-width="1"/><polygon points="548.500000,244.500000 572.500000,232.500000 596.500000,244.500000 572.500000,256.500000 " fill="#ffdd55" stroke="#000000" stroke-width="1"/><polygon points="548.500000,352.500000 548.500000,260.500000 572.500000,272.500000 572.500000,364.500000 " fill="#dd2222" stroke="#000000" stroke-width="1"/><polygon points="596.500000,352.500000 596.500000,260.500000 572.500000,272.500000 572.500000,364.500000 " fill="#aa0000" stroke="#000000" stroke-width="1"/><polygon points="1328.500000,346.500000 1328.500000,346.500000 1340.500000,352.500000 1340.500000,352.500000 " fill="#999999" stroke="#000000" stroke-width="1"/><polygon points="1352.500000,346.500000 1352.500000,346.500000 1340.500000,352.500000 1340.500000,352.500000 " fill="#666666" stroke="#000000" stroke-width="1"/><polygon points="1328.500000,346.500000 1340.500000,340.500000 1352.500000,346.500000 1340.500000,352.500000 " fill="#cccccc" stroke="#000000" stroke-width="1"/><polygon points="1380.500000,352.500000 1380.500000,248.500000 1404.500000,260.500000 1404.500000,364.500000 " fill="#ffaa22" stroke="#000000" stroke-width="1"/><polygon points="1428.500000,352.500000 1428.500000,248.500000 1404.500000,260.500000 1404.500000,364.500000 " fill="#cc7700" stroke="#000000" stroke-width="1"/><polygon points="1380.500000,248.500000 1404.500000,236.500000 1428.500000,248.500000 1404.500000,260.500000 " fill="#ffdd55" stroke="#000000" stroke-width="1"/><polygon points="1380.500000,352.500000 1380.500000,264.500000 1404.500000,276.500000 1404.500000,364.500000 " fill="#dd2222" stroke="#000000" stroke-width="1"/><polygon points="1428.500000,352.500000 1428.500000,264.500000 1404.500000,276.500000 1404.500000,364.500000 " fill="#aa0000" stroke="#000000" stroke-width="1"/><polygon points="592.500000,362.500000 592.500000,362.500000 604.500000,368.500000 604.500000,368.500000 " fill="#999999" stroke="#000000" stroke-width="1"/><polygon points="616.500000,362.500000 616.500000,362.500000 604.500000,368.500000 604.500000,368.500000 " fill="#666666" stroke="#000000" stroke-width="1"/><polygon points="592.500000,362.500000 604.500000,356.500000 616.500000,362.500000 604.500000,368.500000 " fill="#cccccc" stroke="#000000" stroke-width="1"/><polygon points="516.500000,368.500000 516.500000,356.500000 540.500000,368.500000 540.500000,380.500000 " fill="#ffaa22" stroke="#000000" stroke-width="1"/><polygon points="564.500000,368.500000 564.500000,356.500000 540.500000,368.500000 540.500000,380.500000 " fill="#cc7700" stroke="#000000" stroke-width="1"/><polygon points="516.500000,356.500000 540.500000,344.500000 564.500000,356.500000 540.500000,368.500000 " fill="#ffdd55" stroke="#000000" stroke-width="1"/><polygon points="516.500000,368.500000 516.500000,360.500000 540.500000,372.500000 540.500000,380.500000 " fill="#dd2222" stroke="#000000" stroke-width="1"/><polygon points="564.500000,368.500000 564.500000,360.500000 540.500000,372.500000 540.500000,380.500000 " fill="#aa0000" stroke="#000000" stroke-width="1"/><polygon points="1360.500000,362.500000 1360.500000,362.500000 1372.500000,368.500000 1372.500000,368.500000 " fill="#999999" stroke="#000000" stroke-width="1"/><polygon points="1384.500000,362.500000 1384.500000,362.500000 1372.500000,368.500000 1372.500000,368.500000 " fill="#666666" stroke="#000000" stroke-width="1"/><polygon points="1360.500000,362.500000 1372.500000,356.500000 1384.500000,362.500000 1372.500000,368.500000 " fill="#cccccc" stroke="#000000" stroke-width="1"/><polygon points="1424.500000,362.500000 1424.500000,362.500000 1436.500000,368.500000 1436.500000,368.500000 " fill="#999999" stroke="#000000" stroke-width="1"/><polygon points="1448.500000,362.500000 1448.500000,362.500000 1436.500000,368.500000 1436.500000,368.500000 " fill="#666666" stroke="#000000" stroke-width="1"/><polygon points="1424.500000,362.500000 1436.500000,356.500000 1448.500000,362.500000 1436.500000,368.500000 " fill="#cccccc" stroke="#000000" stroke-width="1"/><polygon points="1408.500000,370.500000 1408.500000,370.500000 1420.500000,376.500000 1420.500000,376.500000 " fill="#999999" stroke="#000000" stroke-width="1"/><polygon points="1432.500000,370.500000 1432.500000,370.500000 1420.500000,376.500000 1420.500000,376.500000 " fill="#666666" stroke="#000000" stroke-width="1"/><polygon points="1408.500000,370.500000 1420.500000,364.500000 1432.500000,370.500000 1420.500000,376.500000 " fill="#cccccc" stroke="#000000" stroke-width="1"/><polygon points="1376.500000,370.500000 1376.500000,370.500000 1388.500000,376.500000 1388.500000,376.500000 " fill="#999999" stroke="#000000" stroke-width="1"/><polygon points="1400.500000,370.500000 1400.500000,370.500000 1388.500000,376.500000 1388.500000,376.500000 " fill="#666666" stroke="#000000" stroke-width="1"/><polygon points="1376.500000,370.500000 1388.500000,364.500000 1400.500000,370.500000 1388.500000,376.500000 " fill="#cccccc" stroke="#000000" stroke-width="1"/><polygon points="560.500000,378.500000 560.500000,378.500000 572.500000,384.500000 572.500000,384.500000 " fill="#999999" stroke="#000000" stroke-width="1"/><polygon points="584.500000,378.500000 584.500000,378.500000 572.500000,384.500000 572.500000,384.500000 " fill="#666666" stroke="#000000" stroke-width="1"/><polygon points="560.500000,378.500000 572.500000,372.500000 584.500000,378.500000 572.500000,384.500000 " fill="#cccccc" stroke="#000000" stroke-width="1"/><polygon points="484.500000,384.500000 484.500000,368.500000 508.500000,380.500000 508.500000,396.500000 " fill="#ffaa22" stroke="#000000" stroke-width="1"/><polygon points="532.500000,384.500000 532.500000,368.500000 508.500000,380.500000 508.500000,396.500000 " fill="#cc7700" stroke="#000000" stroke-width="1"/><polygon points="484.500000,368.500000 508.500000,356.500000 532.500000,368.500000 508.500000,380.500000 " fill="#ffdd55" stroke="#000000" stroke-width="1"/><polygon points="484.500000,384.500000 484.500000,376.500000 508.500000,388.500000 508.500000,396.500000 " fill="#dd2222" stroke="#000000" stroke-width="1"/><polygon points="532.500000,384.500000 532.500000,376.500000 508.500000,388.500000 508.500000,396.500000 " fill="#aa0000" stroke="#000000" stroke-width="1"/><polygon points="1444.500000,384.500000 1444.500000,364.500000 1468.500000,376.500000 1468.500000,396.500000 " fill="#ffaa22" stroke="#000000" stroke-width="1"/><polygon points="1492.500000,384.500000 1492.500000,364.500000 1468.500000,376.500000 1468.500000,396.500000 " fill="#cc7700" stroke="#000000" stroke-width="1"/><polygon points="1444.500000,364.500000 1468.500000,352.500000 1492.500000,364.500000 1468.500000,376.500000 " fill="#ffdd55" stroke="#000000" stroke-width="1"/><polygon points="1444.500000,384.500000 1444.500000,376.500000 1468.500000,388.500000 1468.500000,396.500000 " fill="#dd2222" stroke="#000000" stroke-width="1"/><polygon points="1492.500000,384.500000 1492.500000,376.500000 1468.500000,388.500000 1468.500000,396.500000 " fill="#aa0000" stroke="#000000" stroke-width="1"/><polygon points="528.500000,394.500000 528.500000,394.500000 540.500000,400.500000 540.500000,400.500000 " fill="#999999" stroke="#000000" stroke-width="1"/><polygon points="552.500000,394.500000 552.500000,394.500000 540.500000,400.500000 540.500000,400.500000 " fill="#666666" stroke="#000000" stroke-width="1"/><polygon points="528.500000,394.500000 540.500000,388.500000 552.500000,394.500000 540.500000,400.500000 " fill="#cccccc" stroke="#000000" stroke-width="1"/><polygon points="1424.500000,394.500000 1424.500000,394.500000 1436.500000,400.500000 1436.500000,400.500000 " fill="#999999" stroke="#000000" stroke-width="1"/><polygon points="1448.500000,394.500000 1448.500000,394.500000 1436.500000,400.500000 1436.500000,400.500000 " fill="#666666" stroke="#000000" stroke-width="1"/><polygon points="1424.500000,394.500000 1436.500000,388.500000 1448.500000,394.500000 1436.500000,400.500000 " fill="#cccccc" stroke="#000000" stroke-width="1"/><polygon points="1488.500000,394.500000 1488.500000,394.500000 1500.500000,400.500000 1500.500000,400.500000 " fill="#999999" stroke="#000000" stroke-width="1"/><polygon points="1512.500000,394.500000 1512.500000,394.500000 1500.500000,400.500000 1500.500000,400.500000 " fill="#666666" stroke="#000000" stroke-width="1"/><polygon points="1488.500000,394.500000 1500.500000,388.500000 1512.500000,394.500000 1500.500000,400.500000 " fill="#cccccc" stroke="#000000" stroke-width="1"/><polygon points="452.500000,400.500000 452.500000,304.500000 476.500000,316.500000 476.500000,412.500000 " fill="#ffaa22" stroke="#000000" stroke-width="1"/><polygon points="500.500000,400.500000 500.500000,304.500000 476.500000,316.500000 476.500000,412.500000 " fill="#cc7700" stroke="#000000" stroke-width="1"/><polygon points="452.500000,304.500000 476.500000,292.500000 500.500000,304.500000 476.500000,316.500000 " fill="#ffdd55" stroke="#000000" stroke-width="1"/><polygon points="452.500000,400.500000 452.500000,320.500000 476.500000,332.500000 476.500000,412.500000 " fill="#dd2222" stroke="#000000" stroke-width="1"/><polygon points="500.500000,400.500000 500.500000,320.500000 476.500000,332.500000 476.500000,412.500000 " fill="#aa0000" stroke="#000000" stroke-width="1"/><polygon points="1472.500000,402.500000 1472.500000,402.500000 1484.500000,408.500000 1484.500000,408.500000 " fill="#999999" stroke="#000000" stroke-width="1"/><polygon points="1496.500000,402.500000 1496.500000,402.500000 1484.500000,408.500000 1484.500000,408.500000 " fill="#666666" stroke="#000000" stroke-width="1"/><polygon points="1472.500000,402.500000 1484.500000,396.500000 1496.500000,402.500000 1484.500000,408.500000 " fill="#cccccc" stroke="#000000" stroke-width="1"/><polygon points="1440.500000,402.500000 1440.500000,402.500000 1452.500000,408.500000 1452.500000,408.500000 " fill="#999999" stroke="#000000" stroke-width="1"/><polygon points="1464.500000,402.500000 1464.500000,402.500000 1452.500000,408.500000 1452.500000,408.500000 " fill="#666666" stroke="#000000" stroke-width="1"/><polygon points="1440.500000,402.500000 1452.500000,396.500000 1464.500000,402.500000 1452.500000,408.500000 " fill="#cccccc" stroke="#000000" stroke-width="1"/><polygon points="1504.500000,402.500000 1504.500000,402.500000 1516.500000,408.500000 1516.500000,408.500000 " fill="#999999" stroke="#000000" stroke-width="1"/><polygon points="1528.500000,402.500000 1528.500000,402.500000 1516.500000,408.500000 1516.500000,408.500000 " fill="#666666" stroke="#000000" stroke-width="1"/><polygon points="1504.500000,402.500000 1516.500000,396.500000 1528.500000,402.500000 1516.500000,408.500000 " fill="#cccccc" stroke="#000000" stroke-width="1"/><polygon points="1408.500000,402.500000 1408.500000,402.500000 1420.500000,408.500000 1420.500000,408.500000 " fill="#999999" stroke="#000000" stroke-width="1"/><polygon points="1432.500000,402.500000 1432.500000,402.500000 1420.500000,408.500000 1420.500000,408.500000 " fill="#666666" stroke="#000000" stroke-width="1"/><polygon points="1408.500000,402.500000 1420.500000,396.500000 1432.500000,402.500000 1420.500000,408.500000 " fill="#cccccc" stroke="#000000" stroke-width="1"/><polygon points="1456.500000,410.500000 1456.500000,410.500000 1468.500000,416.500000 1468.500000,416.500000 " fill="#999999" stroke="#000000" stroke-width="1"/><polygon points="1480.500000,410.500000 1480.500000,410.500000 1468.500000,416.500000 1468.500000,416.500000 " fill="#666666" stroke="#000000" stroke-width="1"/><polygon points="1456.500000,410.500000 1468.500000,404.500000 1480.500000,410.500000 1468.500000,416.500000 " fill="#cccccc" stroke="#000000" stroke-width="1"/><polygon points="1488.500000,410.500000 1488.500000,410.500000 1500.500000,416.500000 1500.500000,416.500000 " fill="#999999" stroke="#000000" stroke-width="1"/><polygon points="1512.500000,410.500000 1512.500000,410.500000 1500.500000,416.500000 1500.500000,416.500000 " fill="#666666" stroke="#000000" stroke-width="1"/><polygon points="1488.500000,410.500000 1500.500000,404.500000 1512.500000,410.500000 1500.500000,416.500000 " fill="#cccccc" stroke="#000000" stroke-width="1"/><polygon points="496.500000,410.500000 496.500000,406.500000 508.500000,412.500000 508.500000,416.500000 " fill="#ffaa22" stroke="#000000" stroke-width="1"/><polygon points="520.500000,410.500000 520.500000,406.500000 508.500000,412.500000 508.500000,416.500000 " fill="#cc7700" stroke="#000000" stroke-width="1"/><polygon points="496.500000,406.500000 508.500000,400.500000 520.500000,406.500000 508.500000,412.500000 " fill="#ffdd55" stroke="#000000" stroke-width="1"/><polygon points="432.500000,410.500000 432.500000,402.500000 444.500000,408.500000 444.500000,416.500000 " fill="#ffaa22" stroke="#000000" stroke-width="1"/><polygon points="456.500000,410.500000 456.500000,402.500000 444.500000,408.500000 444.500000,416.500000 " fill="#cc7700" stroke="#000000" stroke-width="1"/><polygon points="432.500000,402.500000 444.500000,396.500000 456.500000,402.500000 444.500000,408.500000 " fill="#ffdd55" stroke="#000000" stroke-width="1"/><polygon points="1508.500000,416.500000 1508.500000,400.500000 1532.500000,412.500000 1532.500000,428.500000 " fill="#ffaa22" stroke="#000000" stroke-width="1"/><polygon points="1556.500000,416.500000 1556.500000,400.500000 1532.500000,412.500000 1532.500000,428.500000 " fill="#cc7700" stroke="#000000" stroke-width="1"/><polygon points="1508.500000,400.500000 1532.500000,388.500000 1556.500000,400.500000 1532.500000,412.500000 " fill="#ffdd55" stroke="#000000" stroke-width="1"/><polygon points="1508.500000,416.500000 1508.500000,404.500000 1532.500000,416.500000 1532.500000,428.500000 " fill="#dd2222" stroke="#000000" stroke-width="1"/><polygon points="1556.500000,416.500000 1556.500000,404.500000 1532.500000,416.500000 1532.500000,428.500000 " fill="#aa0000" stroke="#000000" stroke-width="1"/><polygon points="448.500000,418.500000 448.500000,418.500000 460.500000,424.500000 460.500000,424.500000 " fill="#999999" stroke="#000000" stroke-width="1"/><polygon points="472.500000,418.500000 472.500000,418.500000 460.500000,424.500000 460.500000,424.500000 " fill="#666666" stroke="#000000" stroke-width="1"/><polygon points="448.500000,418.500000 460.500000,412.500000 472.500000,418.500000 460.500000,424.500000 " fill="#cccccc" stroke="#000000" stroke-width="1"/><polygon points="480.500000,418.500000 480.500000,418.500000 492.500000,424.500000 492.500000,424.500000 " fill="#999999" stroke="#000000" stroke-width="1"/><polygon points="504.500000,418.500000 504.500000,418.500000 492.500000,424.500000 492.500000,424.500000 " fill="#666666" stroke="#000000" stroke-width="1"/><polygon points="480.500000,418.500000 492.500000,412.500000 504.500000,418.500000 492.500000,424.500000 " fill="#cccccc" stroke="#000000" stroke-width="1"/><polygon points="416.500000,418.500000 416.500000,418.500000 428.500000,424.500000 428.500000,424.500000 " fill="#999999" stroke="#000000" stroke-width="1"/><polygon points="440.500000,418.500000 440.500000,418.500000 428.500000,424.500000 428.500000,424.500000 " fill="#666666" stroke="#000000" stroke-width="1"/><polygon points="416.500000,418.500000 428.500000,412.500000 440.500000,418.500000 428.500000,424.500000 " fill="#cccccc" stroke="#000000" stroke-width="1"/><polygon points="512.500000,418.500000 512.500000,418.500000 524.500000,424.500000 524.500000,424.500000 " fill="#999999" stroke="#000000" stroke-width="1"/><polygon points="536.500000,418.500000 536.500000,418.500000 524.500000,424.500000 524.500000,424.500000 " fill="#666666" stroke="#000000" stroke-width="1"/><polygon points="512.500000,418.500000 524.500000,412.500000 536.500000,418.500000 524.500000,424.500000 " fill="#cccccc" stroke="#000000" stroke-width="1"/><polygon points="464.500000,426.500000 464.500000,426.500000 476.500000,432.500000 476.500000,432.500000 " fill="#999999" stroke="#000000" stroke-width="1"/><polygon points="488.500000,426.500000 488.500000,426.500000 476.500000,432.500000 476.500000,432.500000 " fill="#666666" stroke="#000000" stroke-width="1"/><polygon points="464.500000,426.500000 476.500000,420.500000 488.500000,426.500000 476.500000,432.500000 " fill="#cccccc" stroke="#000000" stroke-width="1"/><polygon points="432.500000,426.500000 432.500000,426.500000 444.500000,432.500000 444.500000,432.500000 " fill="#999999" stroke="#000000" stroke-width="1"/><polygon points="456.500000,426.500000 456.500000,426.500000 444.500000,432.500000 444.500000,432.500000 " fill="#666666" stroke="#000000" stroke-width="1"/><polygon points="432.500000,426.500000 444.500000,420.500000 456.500000,426.500000 444.500000,432.500000 " fill="#cccccc" stroke="#000000" stroke-width="1"/><polygon points="388.500000,432.500000 388.500000,300.500000 412.500000,312.500000 412.500000,444.500000 " fill="#ffaa22" stroke="#000000" stroke-width="1"/><polygon points="436.500000,432.500000 436.500000,300.500000 412.500000,312.500000 412.500000,444.500000 " fill="#cc7700" stroke="#000000" stroke-width="1"/><polygon points="388.500000,300.500000 412.500000,288.500000 436.500000,300.500000 412.500000,312.500000 " fill="#ffdd55" stroke="#000000" stroke-width="1"/><polygon points="388.500000,432.500000 388.500000,328.500000 412.500000,340.500000 412.500000,444.500000 " fill="#dd2222" stroke="#000000" stroke-width="1"/><polygon points="436.500000,432.500000 436.500000,328.500000 412.500000,340.500000 412.500000,444.500000 " fill="#aa0000" stroke="#000000" stroke-width="1"/><polygon points="1488.500000,426.500000 1488.500000,414.500000 1500.500000,420.500000 1500.500000,432.500000 " fill="#ffaa22" stroke="#000000" stroke-width="1"/><polygon points="1512.500000,426.500000 1512.500000,414.500000 1500.500000,420.500000 1500.500000,432.500000 " fill="#cc7700" stroke="#000000" stroke-width="1"/><polygon points="1488.500000,414.500000 1500.500000,408.500000 1512.500000,414.500000 1500.500000,420.500000 " fill="#ffdd55" stroke="#000000" stroke-width="1"/><polygon points="1552.500000,426.500000 1552.500000,406.500000 1564.500000,412.500000 1564.500000,432.500000 " fill="#ffaa22" stroke="#000000" stroke-width="1"/><polygon points="1576.500000,426.500000 1576.500000,406.500000 1564.500000,412.500000 1564.500000,432.500000 " fill="#cc7700" stroke="#000000" stroke-width="1"/><polygon points="1552.500000,406.500000 1564.500000,400.500000 1576.500000,406.500000 1564.500000,412.500000 " fill="#ffdd55" stroke="#000000" stroke-width="1"/><polygon points="1552.500000,426.500000 1552.500000,414.500000 1564.500000,420.500000 1564.500000,432.500000 " fill="#dd2222" stroke="#000000" stroke-width="1"/><polygon points="1576.500000,426.500000 1576.500000,414.500000 1564.500000,420.500000 1564.500000,432.500000 " fill="#aa0000" stroke="#000000" stroke-width="1"/><polygon points="1536.500000,434.500000 1536.500000,414.500000 1548.500000,420.500000 1548.500000,440.500000 " fill="#ffaa22" stroke="#000000" stroke-width="1"/><polygon points="1560.500000,434.500000 1560.500000,414.500000 1548.500000,420.500000 1548.500000,440.500000 " fill="#cc7700" stroke="#000000" stroke-width="1"/><polygon points="1536.500000,414.500000 1548.500000,408.500000 1560.500000,414.500000 1548.500000,420.500000 " fill="#ffdd55" stroke="#000000" stroke-width="1"/><polygon points="1536.500000,434.500000 1536.500000,422.500000 1548.500000,428.500000 1548.500000,440.500000 " fill="#dd2222" stroke="#000000" stroke-width="1"/><polygon points="1560.500000,434.500000 1560.500000,422.500000 1548.500000,428.500000 1548.500000,440.500000 " fill="#aa0000" stroke="#000000" stroke-width="1"/><polygon points="1504.500000,434.500000 1504.500000,434.500000 1516.500000,440.500000 1516.500000,440.500000 " fill="#999999" stroke="#000000" stroke-width="1"/><polygon points="1528.500000,434.500000 1528.500000,434.500000 1516.500000,440.500000 1516.500000,440.500000 " fill="#666666" stroke="#000000" stroke-width="1"/><polygon points="1504.500000,434.500000 1516.500000,428.500000 1528.500000,434.500000 1516.500000,440.500000 " fill="#cccccc" stroke="#000000" stroke-width="1"/><polygon points="1568.500000,434.500000 1568.500000,434.500000 1580.500000,440.500000 1580.500000,440.500000 " fill="#999999" stroke="#000000" stroke-width="1"/><polygon points="1592.500000,434.500000 1592.500000,434.500000 1580.500000,440.500000 1580.500000,440.500000 " fill="#666666" stroke="#000000" stroke-width="1"/><polygon points="1568.500000,434.500000 1580.500000,428.500000 1592.500000,434.500000 1580.500000,440.500000 " fill="#cccccc" stroke="#000000" stroke-width="1"/><polygon points="1472.500000,434.500000 1472.500000,434.500000 1484.500000,440.500000 1484.500000,440.500000 " fill="#999999" stroke="#000000" stroke-width="1"/><polygon points="1496.500000,434.500000 1496.500000,434.500000 1484.500000,440.500000 1484.500000,440.500000 " fill="#666666" stroke="#000000" stroke-width="1"/><polygon points="1472.500000,434.500000 1484.500000,428.500000 1496.500000,434.500000 1484.500000,440.500000 " fill="#cccccc" stroke="#000000" stroke-width="1"/><polygon points="432.500000,442.500000 432.500000,438.500000 444.500000,444.500000 444.500000,448.500000 " fill="#ffaa22" stroke="#000000" stroke-width="1"/><polygon points="456.500000,442.500000 456.500000,438.500000 444.500000,444.500000 444.500000,448.500000 " fill="#cc7700" stroke="#000000" stroke-width="1"/><polygon points="432.500000,438.500000 444.500000,432.500000 456.500000,438.500000 444.500000,444.500000 " fill="#ffdd55" stroke="#000000" stroke-width="1"/><polygon points="368.500000,442.500000 368.500000,438.500000 380.500000,444.500000 380.500000,448.500000 " fill="#ffaa22" stroke="#000000" stroke-width="1"/><polygon points="392.500000,442.500000 392.500000,438.500000 380.500000,444.500000 380.500000,448.500000 " fill="#cc7700" stroke="#000000" stroke-width="1"/><polygon points="368.500000,438.500000 380.500000,432.500000 392.500000,438.500000 380.500000,444.500000 " fill="#ffdd55" stroke="#000000" stroke-width="1"/><polygon points="1520.500000,442.500000 1520.500000,442.500000 1532.500000,448.500000 1532.500000,448.500000 " fill="#999999" stroke="#000000" stroke-width="1"/><polygon points="1544.500000,442.500000 1544.500000,442.500000 1532.500000,448.500000 1532.500000,448.500000 " fill="#666666" stroke="#000000" stroke-width="1"/><polygon points="1520.500000,442.500000 1532.500000,436.500000 1544.500000,442.500000 1532.500000,448.500000 " fill="#cccccc" stroke="#000000" stroke-width="1"/><polygon points="1552.500000,442.500000 1552.500000,442.500000 1564.500000,448.500000 1564.500000,448.500000 " fill="#999999" stroke="#000000" stroke-width="1"/><polygon points="1576.500000,442.500000 1576.500000,442.500000 1564.500000,448.500000 1564.500000,448.500000 " fill="#666666" stroke="#000000" stroke-width="1"/><polygon points="1552.500000,442.500000 1564.500000,436.500000 1576.500000,442.500000 1564.500000,448.500000 " fill="#cccccc" stroke="#000000" stroke-width="1"/><polygon points="1488.500000,442.500000 1488.500000,442.500000 1500.500000,448.500000 1500.500000,448.500000 " fill="#999999" stroke="#000000" stroke-width="1"/><polygon points="1512.500000,442.500000 1512.500000,442.500000 1500.500000,448.500000 1500.500000,448.500000 " fill="#666666" stroke="#000000" stroke-width="1"/><polygon points="1488.500000,442.500000 1500.500000,436.500000 1512.500000,442.500000 1500.500000,448.500000 " fill="#cccccc" stroke="#000000" stroke-width="1"/><polygon points="1584.500000,442.500000 1584.500000,434.500000 1596.500000,440.500000 1596.500000,448.500000 " fill="#dd2222" stroke="#000000" stroke-width="1"/><polygon points="1608.500000,442.500000 1608.500000,434.500000 1596.500000,440.500000 1596.500000,448.500000 " fill="#aa0000" stroke="#000000" stroke-width="1"/><polygon points="1584.500000,434.500000 1596.500000,428.500000 1608.500000,434.500000 1596.500000,440.500000 " fill="#ff5555" stroke="#000000" stroke-width="1"/><polygon points="384.500000,450.500000 384.500000,450.500000 396.500000,456.500000 396.500000,456.500000 " fill="#999999" stroke="#000000" stroke-width="1"/><polygon points="408.500000,450.500000 408.500000,450.500000 396.500000,456.500000 396.500000,456.500000 " fill="#666666" stroke="#000000" stroke-width="1"/><polygon points="384.500000,450.500000 396.500000,444.500000 408.500000,450.500000 396.500000,456.500000 " fill="#cccccc" stroke="#000000" stroke-width="1"/><polygon points="416.500000,450.500000 416.500000,450.500000 428.500000,456.500000 428.500000,456.500000 " fill="#999999" stroke="#000000" stroke-width="1"/><polygon points="440.500000,450.500000 440.500000,450.500000 428.500000,456.500000 428.500000,456.500000 " fill="#666666" stroke="#000000" stroke-width="1"/><polygon points="416.500000,450.500000 428.500000,444.500000 440.500000,450.500000 428.500000,456.500000 " fill="#cccccc" stroke="#000000" stroke-width="1"/><polygon points="352.500000,450.500000 352.500000,450.500000 364.500000,456.500000 364.500000,456.500000 " fill="#999999" stroke="#000000" stroke-width="1"/><polygon points="376.500000,450.500000 376.500000,450.500000 364.500000,456.500000 364.500000,456.500000 " fill="#666666" stroke="#000000" stroke-width="1"/><polygon points="352.500000,450.500000 364.500000,444.500000 376.500000,450.500000 364.500000,456.500000 " fill="#cccccc" stroke="#000000" stroke-width="1"/><polygon points="1536.500000,450.500000 1536.500000,450.500000 1548.500000,456.500000 1548.500000,456.500000 " fill="#999999" stroke="#000000" stroke-width="1"/><polygon points="1560.500000,450.500000 1560.500000,450.500000 1548.500000,456.500000 1548.500000,456.500000 " fill="#666666" stroke="#000000" stroke-width="1"/><polygon points="1536.500000,450.500000 1548.500000,444.500000 1560.500000,450.500000 1548.500000,456.500000 " fill="#cccccc" stroke="#000000" stroke-width="1"/><polygon points="400.500000,458.500000 400.500000,458.500000 412.500000,464.500000 412.500000,464.500000 " fill="#999999" stroke="#000000" stroke-width="1"/><polygon points="424.500000,458.500000 424.500000,458.500000 412.500000,464.500000 412.500000,464.500000 " fill="#666666" stroke="#000000" stroke-width="1"/><polygon points="400.500000,458.500000 412.500000,452.500000 424.500000,458.500000 412.500000,464.500000 " fill="#cccccc" stroke="#000000" stroke-width="1"/><polygon points="368.500000,458.500000 368.500000,458.500000 380.500000,464.500000 380.500000,464.500000 " fill="#999999" stroke="#000000" stroke-width="1"/><polygon points="392.500000,458.500000 392.500000,458.500000 380.500000,464.500000 380.500000,464.500000 " fill="#666666" stroke="#000000" stroke-width="1"/><polygon points="368.500000,458.500000 380.500000,452.500000 392.500000,458.500000 380.500000,464.500000 " fill="#cccccc" stroke="#000000" stroke-width="1"/><polygon points="1604.500000,464.500000 1604.500000,336.500000 1628.500000,348.500000 1628.500000,476.500000 " fill="#ffaa22" stroke="#000000" stroke-width="1"/><polygon points="1652.500000,464.500000 1652.500000,336.500000 1628.500000,348.500000 1628.500000,476.500000 " fill="#cc7700" stroke="#000000" stroke-width="1"/><polygon points="1604.500000,336.500000 1628.500000,324.500000 1652.500000,336.500000 1628.500000,348.500000 " fill="#ffdd55" stroke="#000000" stroke-width="1"/><polygon points="1604.500000,464.500000 1604.500000,360.500000 1628.500000,372.500000 1628.500000,476.500000 " fill="#dd2222" stroke="#000000" stroke-width="1"/><polygon points="1652.500000,464.500000 1652.500000,360.500000 1628.500000,372.500000 1628.500000,476.500000 " fill="#aa0000" stroke="#000000" stroke-width="1"/><polygon points="324.500000,464.500000 324.500000,348.500000 348.500000,360.500000 348.500000,476.500000 " fill="#ffaa22" stroke="#000000" stroke-width="1"/><polygon points="372.500000,464.500000 372.500000,348.500000 348.500000,360.500000 348.500000,476.500000 " fill="#cc7700" stroke="#000000" stroke-width="1"/><polygon points="324.500000,348.500000 348.500000,336.500000 372.500000,348.500000 348.500000,360.500000 " fill="#ffdd55" stroke="#000000" stroke-width="1"/><polygon points="324.500000,464.500000 324.500000,368.500000 348.500000,380.500000 348.500000,476.500000 " fill="#dd2222" stroke="#000000" stroke-width="1"/><polygon points="372.500000,464.500000 372.500000,368.500000 348.500000,380.500000 348.500000,476.500000 " fill="#aa0000" stroke="#000000" stroke-width="1"/><polygon points="1584.500000,474.500000 1584.500000,470.500000 1596.500000,476.500000 1596.500000,480.500000 " fill="#ffaa22" stroke="#000000" stroke-width="1"/><polygon points="1608.500000,474.500000 1608.500000,470.500000 1596.500000,476.500000 1596.500000,480.500000 " fill="#cc7700" stroke="#000000" stroke-width="1"/><polygon points="1584.500000,470.500000 1596.500000,464.500000 1608.500000,470.500000 1596.500000,476.500000 " fill="#ffdd55" stroke="#000000" stroke-width="1"/><polygon points="1648.500000,474.500000 1648.500000,466.500000 1660.500000,472.500000 1660.500000,480.500000 " fill="#ffaa22" stroke="#000000" stroke-width="1"/><polygon points="1672.500000,474.500000 1672.500000,466.500000 1660.500000,472.500000 1660.500000,480.500000 " fill="#cc7700" stroke="#000000" stroke-width="1"/><polygon points="1648.500000,466.500000 1660.500000,460.500000 1672.500000,466.500000 1660.500000,472.500000 " fill="#ffdd55" stroke="#000000" stroke-width="1"/><polygon points="368.500000,474.500000 368.500000,454.500000 380.500000,460.500000 380.500000,480.500000 " fill="#ffaa22" stroke="#000000" stroke-width="1"/><polygon points="392.500000,474.500000 392.500000,454.500000 380.500000,460.500000 380.500000,480.500000 " fill="#cc7700" stroke="#000000" stroke-width="1"/><polygon points="368.500000,454.500000 380.500000,448.500000 392.500000,454.500000 380.500000,460.500000 " fill="#ffdd55" stroke="#000000" stroke-width="1"/><polygon points="368.500000,474.500000 368.500000,462.500000 380.500000,468.500000 380.500000,480.500000 " fill="#dd2222" stroke="#000000" stroke-width="1"/><polygon points="392.500000,474.500000 392.500000,462.500000 380.500000,468.500000 380.500000,480.500000 " fill="#aa0000" stroke="#000000" stroke-width="1"/><polygon points="304.500000,474.500000 304.500000,454.500000 316.500000,460.500000 316.500000,480.500000 " fill="#ffaa22" stroke="#000000" stroke-width="1"/><polygon points="328.500000,474.500000 328.500000,454.500000 316.500000,460.500000 316.500000,480.500000 " fill="#cc7700" stroke="#000000" stroke-width="1"/><polygon points="304.500000,454.500000 316.500000,448.500000 328.500000,454.500000 316.500000,460.500000 " fill="#ffdd55" stroke="#000000" stroke-width="1"/><polygon points="304.500000,474.500000 304.500000,462.500000 316.500000,468.500000 316.500000,480.500000 " fill="#dd2222" stroke="#000000" stroke-width="1"/><polygon points="328.500000,474.500000 328.500000,462.500000 316.500000,468.500000 316.500000,480.500000 " fill="#aa0000" stroke="#000000" stroke-width="1"/><polygon points="1632.500000,482.500000 1632.500000,478.500000 1644.500000,484.500000 1644.500000,488.500000 " fill="#ffaa22" stroke="#000000" stroke-width="1"/><polygon points="1656.500000,482.500000 1656.500000,478.500000 1644.500000,484.500000 1644.500000,488.500000 " fill="#cc7700" stroke="#000000" stroke-width="1"/><polygon points="1632.500000,478.500000 1644.500000,472.500000 1656.500000,478.500000 1644.500000,484.500000 " fill="#ffdd55" stroke="#000000" stroke-width="1"/><polygon points="1600.500000,482.500000 1600.500000,478.500000 1612.500000,484.500000 1612.500000,488.500000 " fill="#ffaa22" stroke="#000000" stroke-width="1"/><polygon points="1624.500000,482.500000 1624.500000,478.500000 1612.500000,484.500000 1612.500000,488.500000 " fill="#cc7700" stroke="#000000" stroke-width="1"/><polygon points="1600.500000,478.500000 1612.500000,472.500000 1624.500000,478.500000 1612.500000,484.500000 " fill="#ffdd55" stroke="#000000" stroke-width="1"/><polygon points="1664.500000,482.500000 1664.500000,482.500000 1676.500000,488.500000 1676.500000,488.500000 " fill="#999999" stroke="#000000" stroke-width="1"/><polygon points="1688.500000,482.500000 1688.500000,482.500000 1676.500000,488.500000 1676.500000,488.500000 " fill="#666666" stroke="#000000" stroke-width="1"/><polygon points="1664.500000,482.500000 1676.500000,476.500000 1688.500000,482.500000 1676.500000,488.500000 " fill="#cccccc" stroke="#000000" stroke-width="1"/><polygon points="1568.500000,482.500000 1568.500000,482.500000 1580.500000,488.500000 1580.500000,488.500000 " fill="#999999" stroke="#000000" stroke-width="1"/><polygon points="1592.500000,482.500000 1592.500000,482.500000 1580.500000,488.500000 1580.500000,488.500000 " fill="#666666" stroke="#000000" stroke-width="1"/><polygon points="1568.500000,482.500000 1580.500000,476.500000 1592.500000,482.500000 1580.500000,488.500000 " fill="#cccccc" stroke="#000000" stroke-width="1"/><polygon points="320.500000,482.500000 320.500000,482.500000 332.500000,488.500000 332.500000,488.500000 " fill="#999999" stroke="#000000" stroke-width="1"/><polygon points="344.500000,482.500000 344.500000,482.500000 332.500000,488.500000 332.500000,488.500000 " fill="#666666" stroke="#000000" stroke-width="1"/><polygon points="320.500000,482.500000 332.500000,476.500000 344.500000,482.500000 332.500000,488.500000 " fill="#cccccc" stroke="#000000" stroke-width="1"/><polygon points="352.500000,482.500000 352.500000,482.500000 364.500000,488.500000 364.500000,488.500000 " fill="#999999" stroke="#000000" stroke-width="1"/><polygon points="376.500000,482.500000 376.500000,482.500000 364.500000,488.500000 364.500000,488.500000 " fill="#666666" stroke="#000000" stroke-width="1"/><polygon points="352.500000,482.500000 364.500000,476.500000 376.500000,482.500000 364.500000,488.500000 " fill="#cccccc" stroke="#000000" stroke-width="1"/><polygon points="288.500000,482.500000 288.500000,482.500000 300.500000,488.500000 300.500000,488.500000 " fill="#999999" stroke="#000000" stroke-width="1"/><polygon points="312.500000,482.500000 312.500000,482.500000 300.500000,488.500000 300.500000,488.500000 " fill="#666666" stroke="#000000" stroke-width="1"/><polygon points="288.500000,482.500000 300.500000,476.500000 312.500000,482.500000 300.500000,488.500000 " fill="#cccccc" stroke="#000000" stroke-width="1"/><polygon points="384.500000,482.500000 384.500000,450.500000 396.500000,456.500000 396.500000,488.500000 " fill="#dd2222" stroke="#000000" stroke-width="1"/><polygon points="408.500000,482.500000 408.500000,450.500000 396.500000,456.500000 396.500000,488.500000 " fill="#aa0000" stroke="#000000" stroke-width="1"/><polygon points="384.500000,450.500000 396.500000,444.500000 408.500000,450.500000 396.500000,456.500000 " fill="#ff5555" stroke="#000000" stroke-width="1"/><polygon points="1616.500000,490.500000 1616.500000,470.500000 1628.500000,476.500000 1628.500000,496.500000 " fill="#ffaa22" stroke="#000000" stroke-width="1"/><polygon points="1640.500000,490.500000 1640.500000,470.500000 1628.500000,476.500000 1628.500000,496.500000 " fill="#cc7700" stroke="#000000" stroke-width="1"/><polygon points="1616.500000,470.500000 1628.500000,464.500000 1640.500000,470.500000 1628.500000,476.500000 " fill="#ffdd55" stroke="#000000" stroke-width="1"/><polygon points="1616.500000,490.500000 1616.500000,478.500000 1628.500000,484.500000 1628.500000,496.500000 " fill="#dd2222" stroke="#000000" stroke-width="1"/><polygon points="1640.500000,490.500000 1640.500000,478.500000 1628.500000,484.500000 1628.500000,496.500000 " fill="#aa0000" stroke="#000000" stroke-width="1"/><polygon points="1648.500000,490.500000 1648.500000,490.500000 1660.500000,496.500000 1660.500000,496.500000 " fill="#999999" stroke="#000000" stroke-width="1"/><polygon points="1672.500000,490.500000 1672.500000,490.500000 1660.500000,496.500000 1660.500000,496.500000 " fill="#666666" stroke="#000000" stroke-width="1"/><polygon points="1648.500000,490.500000 1660.500000,484.500000 1672.500000,490.500000 1660.500000,496.500000 " fill="#cccccc" stroke="#000000" stroke-width="1"/><polygon points="1584.500000,490.500000 1584.500000,490.500000 1596.500000,496.500000 1596.500000,496.500000 " fill="#999999" stroke="#000000" stroke-width="1"/><polygon points="1608.500000,490.500000 1608.500000,490.500000 1596.500000,496.500000 1596.500000,496.500000 " fill="#666666" stroke="#000000" stroke-width="1"/><polygon points="1584.500000,490.500000 1596.500000,484.500000 1608.500000,490.500000 1596.500000,496.500000 " fill="#cccccc" stroke="#000000" stroke-width="1"/><polygon points="1680.500000,490.500000 1680.500000,490.500000 1692.500000,496.500000 1692.500000,496.500000 " fill="#999999" stroke="#000000" stroke-width="1"/><polygon points="1704.500000,490.500000 1704.500000,490.500000 1692.500000,496.500000 1692.500000,496.500000 " fill="#666666" stroke="#000000" stroke-width="1"/><polygon points="1680.500000,490.500000 1692.500000,484.500000 1704.500000,490.500000 1692.500000,496.500000 " fill="#cccccc" stroke="#000000" stroke-width="1"/><polygon points="1552.500000,490.500000 1552.500000,490.500000 1564.500000,496.500000 1564.500000,496.500000 " fill="#999999" stroke="#000000" stroke-width="1"/><polygon points="1576.500000,490.500000 1576.500000,490.500000 1564.500000,496.500000 1564.500000,496.500000 " fill="#666666" stroke="#000000" stroke-width="1"/><polygon points="1552.500000,490.500000 1564.500000,484.500000 1576.500000,490.500000 1564.500000,496.500000 " fill="#cccccc" stroke="#000000" stroke-width="1"/><polygon points="336.500000,490.500000 336.500000,490.500000 348.500000,496.500000 348.500000,496.500000 " fill="#999999" stroke="#000000" stroke-width="1"/><polygon points="360.500000,490.500000 360.500000,490.500000 348.500000,496.500000 348.500000,496.500000 " fill="#666666" stroke="#000000" stroke-width="1"/><polygon points="336.500000,490.500000 348.500000,484.500000 360.500000,490.500000 348.500000,496.500000 " fill="#cccccc" stroke="#000000" stroke-width="1"/><polygon points="304.500000,490.500000 304.500000,490.500000 316.500000,496.500000 316.500000,496.500000 " fill="#999999" stroke="#000000" stroke-width="1"/><polygon points="328.500000,490.500000 328.500000,490.500000 316.500000,496.500000 316.500000,496.500000 " fill="#666666" stroke="#000000" stroke-width="1"/><polygon points="304.500000,490.500000 316.500000,484.500000 328.500000,490.500000 316.500000,496.500000 " fill="#cccccc" stroke="#000000" stroke-width="1"/><polygon points="400.500000,490.500000 400.500000,466.500000 412.500000,472.500000 412.500000,496.500000 " fill="#dd2222" stroke="#000000" stroke-width="1"/><polygon points="424.500000,490.500000 424.500000,466.500000 412.500000,472.500000 412.500000,496.500000 " fill="#aa0000" stroke="#000000" stroke-width="1"/><polygon points="400.500000,466.500000 412.500000,460.500000 424.500000,466.500000 412.500000,472.500000 " fill="#ff5555" stroke="#000000" stroke-width="1"/><polygon points="1632.500000,498.500000 1632.500000,498.500000 1644.500000,504.500000 1644.500000,504.500000 " fill="#999999" stroke="#000000" stroke-width="1"/><polygon points="1656.500000,498.500000 1656.500000,498.500000 1644.500000,504.500000 1644.500000,504.500000 " fill="#666666" stroke="#000000" stroke-width="1"/><polygon points="1632.500000,498.500000 1644.500000,492.500000 1656.500000,498.500000 1644.500000,504.500000 " fill="#cccccc" stroke="#000000" stroke-width="1"/><polygon points="1600.500000,498.500000 1600.500000,498.500000 1612.500000,504.500000 1612.500000,504.500000 " fill="#999999" stroke="#000000" stroke-width="1"/><polygon points="1624.500000,498.500000 1624.500000,498.500000 1612.500000,504.500000 1612.500000,504.500000 " fill="#666666" stroke="#000000" stroke-width="1"/><polygon points="1600.500000,498.500000 1612.500000,492.500000 1624.500000,498.500000 1612.500000,504.500000 " fill="#cccccc" stroke="#000000" stroke-width="1"/><polygon points="1664.500000,498.500000 1664.500000,498.500000 1676.500000,504.500000 1676.500000,504.500000 " fill="#999999" stroke="#000000" stroke-width="1"/><polygon points="1688.500000,498.500000 1688.500000,498.500000 1676.500000,504.500000 1676.500000,504.500000 " fill="#666666" stroke="#000000" stroke-width="1"/><polygon points="1664.500000,498.500000 1676.500000,492.500000 1688.500000,498.500000 1676.500000,504.500000 " fill="#cccccc" stroke="#000000" stroke-width="1"/><polygon points="1568.500000,498.500000 1568.500000,486.500000 1580.500000,492.500000 1580.500000,504.500000 " fill="#dd2222" stroke="#000000" stroke-width="1"/><polygon points="1592.500000,498.500000 1592.500000,486.500000 1580.500000,492.500000 1580.500000,504.500000 " fill="#aa0000" stroke="#000000" stroke-width="1"/><polygon points="1568.500000,486.500000 1580.500000,480.500000 1592.500000,486.500000 1580.500000,492.500000 " fill="#ff5555" stroke="#000000" stroke-width="1"/><polygon points="1696.500000,498.500000 1696.500000,486.500000 1708.500000,492.500000 1708.500000,504.500000 " fill="#dd2222" stroke="#000000" stroke-width="1"/><polygon points="1720.500000,498.500000 1720.500000,486.500000 1708.500000,492.500000 1708.500000,504.500000 " fill="#aa0000" stroke="#000000" stroke-width="1"/><polygon points="1696.500000,486.500000 1708.500000,480.500000 1720.500000,486.500000 1708.500000,492.500000 " fill="#ff5555" stroke="#000000" stroke-width="1"/><polygon points="320.500000,498.500000 320.500000,462.500000 332.500000,468.500000 332.500000,504.500000 " fill="#dd2222" stroke="#000000" stroke-width="1"/><polygon points="344.500000,498.500000 344.500000,462.500000 332.500000,468.500000 332.500000,504.500000 " fill="#aa0000" stroke="#000000" stroke-width="1"/><polygon points="320.500000,462.500000 332.500000,456.500000 344.500000,462.500000 332.500000,468.500000 " fill="#ff5555" stroke="#000000" stroke-width="1"/><polygon points="256.500000,498.500000 256.500000,478.500000 268.500000,484.500000 268.500000,504.500000 " fill="#dd2222" stroke="#000000" stroke-width="1"/><polygon points="280.500000,498.500000 280.500000,478.500000 268.500000,484.500000 268.500000,504.500000 " fill="#aa0000" stroke="#000000" stroke-width="1"/><polygon points="256.500000,478.500000 268.500000,472.500000 280.500000,478.500000 268.500000,484.500000 " fill="#ff5555" stroke="#000000" stroke-width="1"/><polygon points="416.500000,498.500000 416.500000,442.500000 428.500000,448.500000 428.500000,504.500000 " fill="#ffaa22" stroke="#000000" stroke-width="1"/><polygon points="440.500000,498.500000 440.500000,442.500000 428.500000,448.500000 428.500000,504.500000 " fill="#cc7700" stroke="#000000" stroke-width="1"/><polygon points="416.500000,442.500000 428.500000,436.500000 440.500000,442.500000 428.500000,448.500000 " fill="#ffdd55" stroke="#000000" stroke-width="1"/><polygon points="416.500000,498.500000 416.500000,446.500000 428.500000,452.500000 428.500000,504.500000 " fill="#dd2222" stroke="#000000" stroke-width="1"/><polygon points="440.500000,498.500000 440.500000,446.500000 428.500000,452.500000 428.500000,504.500000 " fill="#aa0000" stroke="#000000" stroke-width="1"/><polygon points="1616.500000,506.500000 1616.500000,506.500000 1628.500000,512.500000 1628.500000,512.500000 " fill="#999999" stroke="#000000" stroke-width="1"/><polygon points="1640.500000,506.500000 1640.500000,506.500000 1628.500000,512.500000 1628.500000,512.500000 " fill="#666666" stroke="#000000" stroke-width="1"/><polygon points="1616.500000,506.500000 1628.500000,500.500000 1640.500000,506.500000 1628.500000,512.500000 " fill="#cccccc" stroke="#000000" stroke-width="1"/><polygon points="1648.500000,506.500000 1648.500000,506.500000 1660.500000,512.500000 1660.500000,512.500000 " fill="#999999" stroke="#000000" stroke-width="1"/><polygon points="1672.500000,506.500000 1672.500000,506.500000 1660.500000,512.500000 1660.500000,512.500000 " fill="#666666" stroke="#000000" stroke-width="1"/><polygon points="1648.500000,506.500000 1660.500000,500.500000 1672.500000,506.500000 1660.500000,512.500000 " fill="#cccccc" stroke="#000000" stroke-width="1"/><polygon points="432.500000,506.500000 432.500000,470.500000 444.500000,476.500000 444.500000,512.500000 " fill="#dd2222" stroke="#000000" stroke-width="1"/><polygon points="456.500000,506.500000 456.500000,470.500000 444.500000,476.500000 444.500000,512.500000 " fill="#aa0000" stroke="#000000" stroke-width="1"/><polygon points="432.500000,470.500000 444.500000,464.500000 456.500000,470.500000 444.500000,476.500000 " fill="#ff5555" stroke="#000000" stroke-width="1"/><polygon points="240.500000,506.500000 240.500000,482.500000 252.500000,488.500000 252.500000,512.500000 " fill="#dd2222" stroke="#000000" stroke-width="1"/><polygon points="264.500000,506.500000 264.500000,482.500000 252.500000,488.500000 252.500000,512.500000 " fill="#aa0000" stroke="#000000" stroke-width="1"/><polygon points="240.500000,482.500000 252.500000,476.500000 264.500000,482.500000 252.500000,488.500000 " fill="#ff5555" stroke="#000000" stroke-width="1"/><polygon points="1632.500000,514.500000 1632.500000,502.500000 1644.500000,508.500000 1644.500000,520.500000 " fill="#dd2222" stroke="#000000" stroke-width="1"/><polygon points="1656.500000,514.500000 1656.500000,502.500000 1644.500000,508.500000 1644.500000,520.500000 " fill="#aa0000" stroke="#000000" stroke-width="1"/><polygon points="1632.500000,502.500000 1644.500000,496.500000 1656.500000,502.500000 1644.500000,508.500000 " fill="#ff5555" stroke="#000000" stroke-width="1"/><polygon points="224.500000,514.500000 224.500000,490.500000 236.500000,496.500000 236.500000,520.500000 " fill="#dd2222" stroke="#000000" stroke-width="1"/><polygon points="248.500000,514.500000 248.500000,490.500000 236.500000,496.500000 236.500000,520.500000 " fill="#aa0000" stroke="#000000" stroke-width="1"/><polygon points="224.500000,490.500000 236.500000,484.500000 248.500000,490.500000 236.500000,496.500000 " fill="#ff5555" stroke="#000000" stroke-width="1"/><polygon points="448.500000,514.500000 448.500000,474.500000 460.500000,480.500000 460.500000,520.500000 " fill="#dd2222" stroke="#000000" stroke-width="1"/><polygon points="472.500000,514.500000 472.500000,474.500000 460.500000,480.500000 460.500000,520.500000 " fill="#aa0000" stroke="#000000" stroke-width="1"/><polygon points="448.500000,474.500000 460.500000,468.500000 472.500000,474.500000 460.500000,480.500000 " fill="#ff5555" stroke="#000000" stroke-width="1"/><polygon points="208.500000,522.500000 208.500000,470.500000 220.500000,476.500000 220.500000,528.500000 " fill="#dd2222" stroke="#000000" stroke-width="1"/><polygon points="232.500000,522.500000 232.500000,470.500000 220.500000,476.500000 220.500000,528.500000 " fill="#aa0000" stroke="#000000" stroke-width="1"/><polygon points="208.500000,470.500000 220.500000,464.500000 232.500000,470.500000 220.500000,476.500000 " fill="#ff5555" stroke="#000000" stroke-width="1"/><polygon points="480.500000,530.500000 480.500000,490.500000 492.500000,496.500000 492.500000,536.500000 " fill="#dd2222" stroke="#000000" stroke-width="1"/><polygon points="504.500000,530.500000 504.500000,490.500000 492.500000,496.500000 492.500000,536.500000 " fill="#aa0000" stroke="#000000" stroke-width="1"/><polygon points="480.500000,490.500000 492.500000,484.500000 504.500000,490.500000 492.500000,496.500000 " fill="#ff5555" stroke="#000000" stroke-width="1"/><polygon points="176.500000,538.500000 176.500000,466.500000 188.500000,472.500000 188.500000,544.500000 " fill="#ffaa22" stroke="#000000" stroke-width="1"/><polygon points="200.500000,538.500000 200.500000,466.500000 188.500000,472.500000 188.500000,544.500000 " fill="#cc7700" stroke="#000000" stroke-width="1"/><polygon points="176.500000,466.500000 188.500000,460.500000 200.500000,466.500000 188.500000,472.500000 " fill="#ffdd55" stroke="#000000" stroke-width="1"/><polygon points="176.500000,538.500000 176.500000,470.500000 188.500000,476.500000 188.500000,544.500000 " fill="#dd2222" stroke="#000000" stroke-width="1"/><polygon points="200.500000,538.500000 200.500000,470.500000 188.500000,476.500000 188.500000,544.500000 " fill="#aa0000" stroke="#000000" stroke-width="1"/><polygon points="512.500000,546.500000 512.500000,478.500000 524.500000,484.500000 524.500000,552.500000 " fill="#ffaa22" stroke="#000000" stroke-width="1"/><polygon points="536.500000,546.500000 536.500000,478.500000 524.500000,484.500000 524.500000,552.500000 " fill="#cc7700" stroke="#000000" stroke-width="1"/><polygon points="512.500000,478.500000 524.500000,472.500000 536.500000,478.500000 524.500000,484.500000 " fill="#ffdd55" stroke="#000000" stroke-width="1"/><polygon points="512.500000,546.500000 512.500000,482.500000 524.500000,488.500000 524.500000,552.500000 " fill="#dd2222" stroke="#000000" stroke-width="1"/><polygon points="536.500000,546.500000 536.500000,482.500000 524.500000,488.500000 524.500000,552.500000 " fill="#aa0000" stroke="#000000" stroke-width="1"/><polygon points="132.500000,560.500000 132.500000,544.500000 156.500000,556.500000 156.500000,572.500000 " fill="#ffaa22" stroke="#000000" stroke-width="1"/><polygon points="180.500000,560.500000 180.500000,544.500000 156.500000,556.500000 156.500000,572.500000 " fill="#cc7700" stroke="#000000" stroke-width="1"/><polygon points="132.500000,544.500000 156.500000,532.500000 180.500000,544.500000 156.500000,556.500000 " fill="#ffdd55" stroke="#000000" stroke-width="1"/><polygon points="132.500000,560.500000 132.500000,548.500000 156.500000,560.500000 156.500000,572.500000 " fill="#dd2222" stroke="#000000" stroke-width="1"/><polygon points="180.500000,560.500000 180.500000,548.500000 156.500000,560.500000 156.500000,572.500000 " fill="#aa0000" stroke="#000000" stroke-width="1"/><polygon points="544.500000,562.500000 544.500000,486.500000 556.500000,492.500000 556.500000,568.500000 " fill="#ffaa22" stroke="#000000" stroke-width="1"/><polygon points="568.500000,562.500000 568.500000,486.500000 556.500000,492.500000 556.500000,568.500000 " fill="#cc7700" stroke="#000000" stroke-width="1"/><polygon points="544.500000,486.500000 556.500000,480.500000 568.500000,486.500000 556.500000,492.500000 " fill="#ffdd55" stroke="#000000" stroke-width="1"/><polygon points="544.500000,562.500000 544.500000,490.500000 556.500000,496.500000 556.500000,568.500000 " fill="#dd2222" stroke="#000000" stroke-width="1"/><polygon points="568.500000,562.500000 568.500000,490.500000 556.500000,496.500000 556.500000,568.500000 " fill="#aa0000" stroke="#000000" stroke-width="1"/><polygon points="176.500000,570.500000 176.500000,566.500000 188.500000,572.500000 188.500000,576.500000 " fill="#ffaa22" stroke="#000000" stroke-width="1"/><polygon points="200.500000,570.500000 200.500000,566.500000 188.500000,572.500000 188.500000,576.500000 " fill="#cc7700" stroke="#000000" stroke-width="1"/><polygon points="176.500000,566.500000 188.500000,560.500000 200.500000,566.500000 188.500000,572.500000 " fill="#ffdd55" stroke="#000000" stroke-width="1"/><polygon points="112.500000,570.500000 112.500000,570.500000 124.500000,576.500000 124.500000,576.500000 " fill="#999999" stroke="#000000" stroke-width="1"/><polygon points="136.500000,570.500000 136.500000,570.500000 124.500000,576.500000 124.500000,576.500000 " fill="#666666" stroke="#000000" stroke-width="1"/><polygon points="112.500000,570.500000 124.500000,564.500000 136.500000,570.500000 124.500000,576.500000 " fill="#cccccc" stroke="#000000" stroke-width="1"/><polygon points="128.500000,578.500000 128.500000,578.500000 140.500000,584.500000 140.500000,584.500000 " fill="#999999" stroke="#000000" stroke-width="1"/><polygon points="152.500000,578.500000 152.500000,578.500000 140.500000,584.500000 140.500000,584.500000 " fill="#666666" stroke="#000000" stroke-width="1"/><polygon points="128.500000,578.500000 140.500000,572.500000 152.500000,578.500000 140.500000,584.500000 " fill="#cccccc" stroke="#000000" stroke-width="1"/><polygon points="160.500000,578.500000 160.500000,578.500000 172.500000,584.500000 172.500000,584.500000 " fill="#999999" stroke="#000000" stroke-width="1"/><polygon points="184.500000,578.500000 184.500000,578.500000 172.500000,584.500000 172.500000,584.500000 " fill="#666666" stroke="#000000" stroke-width="1"/><polygon points="160.500000,578.500000 172.500000,572.500000 184.500000,578.500000 172.500000,584.500000 " fill="#cccccc" stroke="#000000" stroke-width="1"/><polygon points="192.500000,578.500000 192.500000,562.500000 204.500000,568.500000 204.500000,584.500000 " fill="#dd2222" stroke="#000000" stroke-width="1"/><polygon points="216.500000,578.500000 216.500000,562.500000 204.500000,568.500000 204.500000,584.500000 " fill="#aa0000" stroke="#000000" stroke-width="1"/><polygon points="192.500000,562.500000 204.500000,556.500000 216.500000,562.500000 204.500000,568.500000 " fill="#ff5555" stroke="#000000" stroke-width="1"/><polygon points="144.500000,586.500000 144.500000,582.500000 156.500000,588.500000 156.500000,592.500000 " fill="#dd2222" stroke="#000000" stroke-width="1"/><polygon points="168.500000,586.500000 168.500000,582.500000 156.500000,588.500000 156.500000,592.500000 " fill="#aa0000" stroke="#000000" stroke-width="1"/><polygon points="144.500000,582.500000 156.500000,576.500000 168.500000,582.500000 156.500000,588.500000 " fill="#ff5555" stroke="#000000" stroke-width="1"/><polygon points="80.500000,586.500000 80.500000,570.500000 92.500000,576.500000 92.500000,592.500000 " fill="#dd2222" stroke="#000000" stroke-width="1"/><polygon points="104.500000,586.500000 104.500000,570.500000 92.500000,576.500000 92.500000,592.500000 " fill="#aa0000" stroke="#000000" stroke-width="1"/><polygon points="80.500000,570.500000 92.500000,564.500000 104.500000,570.500000 92.500000,576.500000 " fill="#ff5555" stroke="#000000" stroke-width="1"/><polygon points="64.500000,594.500000 64.500000,590.500000 76.500000,596.500000 76.500000,600.500000 " fill="#dd2222" stroke="#000000" stroke-width="1"/><polygon points="88.500000,594.500000 88.500000,590.500000 76.500000,596.500000 76.500000,600.500000 " fill="#aa0000" stroke="#000000" stroke-width="1"/><polygon points="64.500000,590.500000 76.500000,584.500000 88.500000,590.500000 76.500000,596.500000 " fill="#ff5555" stroke="#000000" stroke-width="1"/><polygon points="224.500000,594.500000 224.500000,570.500000 236.500000,576.500000 236.500000,600.500000 " fill="#dd2222" stroke="#000000" stroke-width="1"/><polygon points="248.500000,594.500000 248.500000,570.500000 236.500000,576.500000 236.500000,600.500000 " fill="#aa0000" stroke="#000000" stroke-width="1"/><polygon points="224.500000,570.500000 236.500000,564.500000 248.500000,570.500000 236.500000,576.500000 " fill="#ff5555" stroke="#000000" stroke-width="1"/><polygon points="32.500000,610.500000 32.500000,606.500000 44.500000,612.500000 44.500000,616.500000 " fill="#dd2222" stroke="#000000" stroke-width="1"/><polygon points="56.500000,610.500000 56.500000,606.500000 44.500000,612.500000 44.500000,616.500000 " fill="#aa0000" stroke="#000000" stroke-width="1"/><polygon points="32.500000,606.500000 44.500000,600.500000 56.500000,606.500000 44.500000,612.500000 " fill="#ff5555" stroke="#000000" stroke-width="1"/><polygon points="0.500000,626.500000 0.500000,622.500000 12.500000,628.500000 12.500000,632.500000 " fill="#dd2222" stroke="#000000" stroke-width="1"/><polygon points="24.500000,626.500000 24.500000,622.500000 12.500000,628.500000 12.500000,632.500000 " fill="#aa0000" stroke="#000000" stroke-width="1"/><polygon points="0.500000,622.500000 12.500000,616.500000 24.500000,622.500000 12.500000,628.500000 " fill="#ff5555" stroke="#000000" stroke-width="1"/><text clip-path="url(#cp-1)" x="952" y="29"><tspan x="987.5" text-anchor="middle">Homepage</tspan></text><clipPath id="cp-1"><rect x="951" y="18" width="72" height="12"/></clipPath></svg>
